<svg xmlns="http://www.w3.org/2000/svg" width="1454.5" height="790.5"><g><g transform="translate(581, 130)"><g transform="scale(1.5, 1.5)"><path d="m0.5 14.5 L 0.5 10.5 A 4 4 90 0 1 4.5 6.5 L 8.5 6.5 L 13.5 0.5 L 18.5 6.5 L 27.5 6.5 L 87.5 6.5 L 91.5 6.5 A 4 4 90 0 1 95.5 10.5 L 95.5 14.5 L 95.5 18.5 L 95.5 22.5 A 4 4 90 0 1 91.5 26.5 L 87.5 26.5 L 27.5 26.5 L 26.5 26.5 L 26.5 28.5 L 18.5 28.5 L 18.5 26.5 L 17.5 26.5 L 13.5 26.5 A 5 5 90 0 0 8.5 31.5 L 8.5 35.5 L 8.5 39.5 L 8.5 291.5 L 8.5 295.5 A 5 5 90 0 0 13.5 300.5 L 17.5 300.5 L 17.5 302.5 L 27.5 302.5 L 27.5 300.5 L 35.5 300.5 L 35.5 306.5 L 35.5 312.5 L 35.5 316.5 A 4 4 90 0 1 31.5 320.5 L 27.5 320.5 L 18.5 320.5 L 13.5 326.5 L 8.5 320.5 L 4.5 320.5 A 4 4 90 0 1 0.5 316.5 L 0.5 312.5 z" style="fill:#FFBF00;fill-opacity:1;stroke:#DAAF30;stroke-width:1;stroke-linecap:round;stroke-opacity:1;" /><text style="font-size:10px;fill:#282828;font-family:sans-serif;text-anchor:start"><tspan x="20" y="22">start</tspan></text></g></g><g transform="translate(581, 142) scale(0.5 0.5)"><g style="isolation:isolate"><g id="レイヤー_2" data-name="レイヤー 2"><g id="Icon"><rect width="42" height="42" rx="5" ry="5" style="fill:#292929;opacity:0.4;mix-blend-mode:multiply"/><path d="M30.56,29.8l-4.17-4.16h2.26a1,1,0,1,0,0-2.07H23.94a1.08,1.08,0,0,0-1.11,1v0s0,0,0,.06v4.64h0a1,1,0,1,0,2.08,0V27.08l4.19,4.19a1,1,0,0,0,1.46,0A1,1,0,0,0,30.56,29.8Z" style="fill:#fff"/><path d="M19.17,24.6a1.08,1.08,0,0,0-1.11-1H13.35a1,1,0,1,0,0,2.07H15.6L11.44,29.8a1,1,0,0,0,1.47,1.47l4.18-4.19v2.26a1,1,0,1,0,2.08,0V24.7s0,0,0-.06A.08.08,0,0,1,19.17,24.6Z" style="fill:#fff"/><path d="M23.94,20.5h4.7a1,1,0,1,0,0-2.08H26.39l4.17-4.16a1,1,0,0,0,0-1.47,1,1,0,0,0-1.46,0L24.91,17V14.72a1,1,0,1,0-2.08,0v4.64a.43.43,0,0,0,0,.05v.05A1.09,1.09,0,0,0,23.94,20.5Z" style="fill:#fff"/><path d="M18.13,13.62a1.08,1.08,0,0,0-1,1.09V17l-4.18-4.19a1,1,0,0,0-1.47,0,1,1,0,0,0,0,1.46l4.16,4.17H13.35a1,1,0,1,0,0,2.08h4.71a1.09,1.09,0,0,0,1.11-1,.08.08,0,0,1,0,0s0,0,0-.06V14.71A1.07,1.07,0,0,0,18.13,13.62Z" style="fill:#fff"/></g></g></g></g><g transform="translate(691, 142) scale(0.4 0.4)"></g></g><g transform="translate(1162, 311)"><g transform="scale(1.5, 1.5)"><path d="m0.5 8.5 L 0.5 4.5 A 4 4 90 0 1 4.5 0.5 L 8.5 0.5 L 8.5 2.5 L 18.5 2.5 L 18.5 0.5 L 27.5 0.5 L 47.5 0.5 L 51.5 0.5 A 4 4 90 0 1 55.5 4.5 L 55.5 8.5 L 51.5 8.5 L 51.5 5.5 L 47.5 5.5 L 47.5 15.5 L 51.5 15.5 L 51.5 12.5 L 55.5 12.5 L 55.5 16.5 A 4 4 90 0 1 51.5 20.5 L 47.5 20.5 L 27.5 20.5 L 26.5 20.5 L 26.5 22.5 L 18.5 22.5 L 18.5 20.5 L 17.5 20.5 L 13.5 20.5 A 5 5 90 0 0 8.5 25.5 L 8.5 29.5 L 8.5 33.5 L 8.5 222.5 L 8.5 226.5 A 5 5 90 0 0 13.5 231.5 L 17.5 231.5 L 17.5 233.5 L 27.5 233.5 L 27.5 231.5 L 35.5 231.5 L 35.5 237.5 L 35.5 243.5 L 35.5 247.5 A 4 4 90 0 1 31.5 251.5 L 27.5 251.5 L 18.5 251.5 L 17.5 251.5 L 17.5 253.5 L 9.5 253.5 L 9.5 251.5 L 8.5 251.5 L 4.5 251.5 A 4 4 90 0 1 0.5 247.5 L 0.5 243.5 z" style="fill:#D98A43;fill-opacity:1;stroke:#B7651A;stroke-width:1;stroke-linecap:round;stroke-opacity:1;" /><text style="font-size:10px;fill:#282828;font-family:sans-serif;text-anchor:start"><tspan x="5" y="15">repeat</tspan></text><text style="font-size:6.666666666666667px;fill:#282828;font-family:sans-serif;text-anchor:end"><tspan x="45" y="12"></tspan></text></g></g><g><g transform="translate(1120, 111)"><g transform="scale(1.5, 1.5)"><path d="m0.5 14.5 L 0.5 10.5 A 4 4 90 0 1 4.5 6.5 L 8.5 6.5 L 13.5 0.5 L 18.5 6.5 L 27.5 6.5 L 79.5 6.5 L 83.5 6.5 A 4 4 90 0 1 87.5 10.5 L 87.5 14.5 L 83.5 14.5 L 83.5 11.5 L 79.5 11.5 L 79.5 21.5 L 83.5 21.5 L 83.5 18.5 L 87.5 18.5 L 87.5 22.5 A 4 4 90 0 1 83.5 26.5 L 79.5 26.5 L 27.5 26.5 L 26.5 26.5 L 26.5 28.5 L 18.5 28.5 L 18.5 26.5 L 17.5 26.5 L 13.5 26.5 A 5 5 90 0 0 8.5 31.5 L 8.5 35.5 L 8.5 39.5 L 8.5 417.5 L 8.5 421.5 A 5 5 90 0 0 13.5 426.5 L 17.5 426.5 L 17.5 428.5 L 27.5 428.5 L 27.5 426.5 L 35.5 426.5 L 35.5 432.5 L 35.5 438.5 L 35.5 442.5 A 4 4 90 0 1 31.5 446.5 L 27.5 446.5 L 18.5 446.5 L 13.5 452.5 L 8.5 446.5 L 4.5 446.5 A 4 4 90 0 1 0.5 442.5 L 0.5 438.5 z" style="fill:#FFBF00;fill-opacity:1;stroke:#DAAF30;stroke-width:1;stroke-linecap:round;stroke-opacity:1;" /><text style="font-size:10px;fill:#282828;font-family:sans-serif;text-anchor:start"><tspan x="20" y="22">action</tspan></text><text style="font-size:6.666666666666667px;fill:#282828;font-family:sans-serif;text-anchor:end"><tspan x="77" y="6"></tspan></text></g></g><g transform="translate(1120, 123) scale(0.5 0.5)"><g style="isolation:isolate"><g id="レイヤー_2" data-name="レイヤー 2"><g id="Icon"><rect width="42" height="42" rx="5" ry="5" style="fill:#292929;opacity:0.4;mix-blend-mode:multiply"/><path d="M30.56,29.8l-4.17-4.16h2.26a1,1,0,1,0,0-2.07H23.94a1.08,1.08,0,0,0-1.11,1v0s0,0,0,.06v4.64h0a1,1,0,1,0,2.08,0V27.08l4.19,4.19a1,1,0,0,0,1.46,0A1,1,0,0,0,30.56,29.8Z" style="fill:#fff"/><path d="M19.17,24.6a1.08,1.08,0,0,0-1.11-1H13.35a1,1,0,1,0,0,2.07H15.6L11.44,29.8a1,1,0,0,0,1.47,1.47l4.18-4.19v2.26a1,1,0,1,0,2.08,0V24.7s0,0,0-.06A.08.08,0,0,1,19.17,24.6Z" style="fill:#fff"/><path d="M23.94,20.5h4.7a1,1,0,1,0,0-2.08H26.39l4.17-4.16a1,1,0,0,0,0-1.47,1,1,0,0,0-1.46,0L24.91,17V14.72a1,1,0,1,0-2.08,0v4.64a.43.43,0,0,0,0,.05v.05A1.09,1.09,0,0,0,23.94,20.5Z" style="fill:#fff"/><path d="M18.13,13.62a1.08,1.08,0,0,0-1,1.09V17l-4.18-4.19a1,1,0,0,0-1.47,0,1,1,0,0,0,0,1.46l4.16,4.17H13.35a1,1,0,1,0,0,2.08h4.71a1.09,1.09,0,0,0,1.11-1,.08.08,0,0,1,0,0s0,0,0-.06V14.71A1.07,1.07,0,0,0,18.13,13.62Z" style="fill:#fff"/></g></g></g></g></g><g transform="translate(1240, 120)"><g transform="scale(1.5, 1.5)"><path d="m8.5 0.5 L 98.5 0.5 L 98.5 20.5 L 8.5 20.5 L 8.5 12.5 L 8.5 11.5 L 2.5 11.5 L 2.5 14.5 L 0.5 14.5 L 0.5 6.5 L 2.5 6.5 L 2.5 9.5 L 8.5 9.5 L 8.5 8.5 z" style="fill:#FF664B;fill-opacity:1;stroke:#EA4326;stroke-width:1;stroke-linecap:round;stroke-opacity:1;" /><text style="font-size:10px;fill:#282828;font-family:sans-serif;text-anchor:start"><tspan x="13" y="14">shape</tspan></text></g></g><g transform="translate(595, 235)"><g transform="scale(1.5, 1.5)"><path d="m0.5 8.5 L 0.5 4.5 A 4 4 90 0 1 4.5 0.5 L 8.5 0.5 L 8.5 2.5 L 18.5 2.5 L 18.5 0.5 L 52.5 0.5 L 56.5 0.5 A 4 4 90 0 1 60.5 4.5 L 60.5 8.5 L 56.5 8.5 L 56.5 5.5 L 52.5 5.5 L 52.5 15.5 L 56.5 15.5 L 56.5 12.5 L 60.5 12.5 L 60.5 29.5 L 56.5 29.5 L 56.5 26.5 L 52.5 26.5 L 52.5 36.5 L 56.5 36.5 L 56.5 33.5 L 60.5 33.5 L 60.5 37.5 A 4 4 90 0 1 56.5 41.5 L 52.5 41.5 L 18.5 41.5 L 17.5 41.5 L 17.5 43.5 L 9.5 43.5 L 9.5 41.5 L 8.5 41.5 L 4.5 41.5 A 4 4 90 0 1 0.5 37.5 L 0.5 33.5 L 0.5 12.5 L 0.5 8.5 z" style="fill:#FFBF00;fill-opacity:1;stroke:#DAAF30;stroke-width:1;stroke-linecap:round;stroke-opacity:1;" /><text style="font-size:10px;fill:#282828;font-family:sans-serif;text-anchor:end"><tspan x="50" y="24">store in</tspan></text><text style="font-size:6.666666666666667px;fill:#282828;font-family:sans-serif;text-anchor:end"><tspan x="50" y="12">name</tspan></text><text style="font-size:6.666666666666667px;fill:#282828;font-family:sans-serif;text-anchor:end"><tspan x="50" y="33">value</tspan></text></g></g><g transform="translate(675, 235)"><g transform="scale(1.5, 1.5)"><path d="m8.5 0.5 L 98.5 0.5 L 98.5 20.5 L 8.5 20.5 L 8.5 12.5 L 8.5 11.5 L 2.5 11.5 L 2.5 14.5 L 0.5 14.5 L 0.5 6.5 L 2.5 6.5 L 2.5 9.5 L 8.5 9.5 L 8.5 8.5 z" style="fill:#FF664B;fill-opacity:1;stroke:#EA4326;stroke-width:1;stroke-linecap:round;stroke-opacity:1;" /><text style="font-size:10px;fill:#282828;font-family:sans-serif;text-anchor:start"><tspan x="13" y="14">length</tspan></text></g></g><g transform="translate(675, 267)"><g transform="scale(1.5, 1.5)"><path d="m8.5 0.5 L 68.5 0.5 L 68.5 20.5 L 8.5 20.5 L 8.5 12.5 L 8.5 11.5 L 2.5 11.5 L 2.5 14.5 L 0.5 14.5 L 0.5 6.5 L 2.5 6.5 L 2.5 9.5 L 8.5 9.5 L 8.5 8.5 z" style="fill:#FF6EA1;fill-opacity:1;stroke:#FF2C76;stroke-width:1;stroke-linecap:round;stroke-opacity:1;" /><text style="font-size:10px;fill:#282828;font-family:sans-serif;text-anchor:start"><tspan x="13" y="14">400</tspan></text></g></g><g transform="translate(595, 361)"><g transform="scale(1.5, 1.5)"><path d="m0.5 8.5 L 0.5 4.5 A 4 4 90 0 1 4.5 0.5 L 8.5 0.5 L 8.5 2.5 L 18.5 2.5 L 18.5 0.5 L 52.5 0.5 L 56.5 0.5 A 4 4 90 0 1 60.5 4.5 L 60.5 8.5 L 56.5 8.5 L 56.5 5.5 L 52.5 5.5 L 52.5 15.5 L 56.5 15.5 L 56.5 12.5 L 60.5 12.5 L 60.5 29.5 L 56.5 29.5 L 56.5 26.5 L 52.5 26.5 L 52.5 36.5 L 56.5 36.5 L 56.5 33.5 L 60.5 33.5 L 60.5 37.5 A 4 4 90 0 1 56.5 41.5 L 52.5 41.5 L 18.5 41.5 L 17.5 41.5 L 17.5 43.5 L 9.5 43.5 L 9.5 41.5 L 8.5 41.5 L 4.5 41.5 A 4 4 90 0 1 0.5 37.5 L 0.5 33.5 L 0.5 12.5 L 0.5 8.5 z" style="fill:#FFBF00;fill-opacity:1;stroke:#DAAF30;stroke-width:1;stroke-linecap:round;stroke-opacity:1;" /><text style="font-size:10px;fill:#282828;font-family:sans-serif;text-anchor:end"><tspan x="50" y="24">store in</tspan></text><text style="font-size:6.666666666666667px;fill:#282828;font-family:sans-serif;text-anchor:end"><tspan x="50" y="12">name</tspan></text><text style="font-size:6.666666666666667px;fill:#282828;font-family:sans-serif;text-anchor:end"><tspan x="50" y="33">value</tspan></text></g></g><g transform="translate(675, 361)"><g transform="scale(1.5, 1.5)"><path d="m8.5 0.5 L 98.5 0.5 L 98.5 20.5 L 8.5 20.5 L 8.5 12.5 L 8.5 11.5 L 2.5 11.5 L 2.5 14.5 L 0.5 14.5 L 0.5 6.5 L 2.5 6.5 L 2.5 9.5 L 8.5 9.5 L 8.5 8.5 z" style="fill:#FF664B;fill-opacity:1;stroke:#EA4326;stroke-width:1;stroke-linecap:round;stroke-opacity:1;" /><text style="font-size:10px;fill:#282828;font-family:sans-serif;text-anchor:start"><tspan x="13" y="14">sides</tspan></text></g></g><g transform="translate(675, 393)"><g transform="scale(1.5, 1.5)"><path d="m8.5 0.5 L 68.5 0.5 L 68.5 20.5 L 8.5 20.5 L 8.5 12.5 L 8.5 11.5 L 2.5 11.5 L 2.5 14.5 L 0.5 14.5 L 0.5 6.5 L 2.5 6.5 L 2.5 9.5 L 8.5 9.5 L 8.5 8.5 z" style="fill:#FF6EA1;fill-opacity:1;stroke:#FF2C76;stroke-width:1;stroke-linecap:round;stroke-opacity:1;" /><text style="font-size:10px;fill:#282828;font-family:sans-serif;text-anchor:start"><tspan x="13" y="14">3</tspan></text></g></g><g transform="translate(595, 424)"><g transform="scale(1.5, 1.5)"><path d="m0.5 8.5 L 0.5 4.5 A 4 4 90 0 1 4.5 0.5 L 8.5 0.5 L 8.5 2.5 L 18.5 2.5 L 18.5 0.5 L 27.5 0.5 L 47.5 0.5 L 51.5 0.5 A 4 4 90 0 1 55.5 4.5 L 55.5 8.5 L 51.5 8.5 L 51.5 5.5 L 47.5 5.5 L 47.5 15.5 L 51.5 15.5 L 51.5 12.5 L 55.5 12.5 L 55.5 16.5 A 4 4 90 0 1 51.5 20.5 L 47.5 20.5 L 27.5 20.5 L 23.5 20.5 A 5 5 90 0 0 18.5 25.5 L 18.5 29.5 L 14.5 29.5 L 14.5 26.5 L 10.5 26.5 L 10.5 36.5 L 14.5 36.5 L 14.5 33.5 L 18.5 33.5 L 18.5 50.5 L 14.5 50.5 L 14.5 47.5 L 10.5 47.5 L 10.5 57.5 L 14.5 57.5 L 14.5 54.5 L 18.5 54.5 L 18.5 71.5 L 14.5 71.5 L 14.5 68.5 L 10.5 68.5 L 10.5 78.5 L 14.5 78.5 L 14.5 75.5 L 18.5 75.5 L 18.5 79.5 A 5 5 90 0 0 23.5 84.5 L 27.5 84.5 L 35.5 84.5 L 35.5 90.5 L 35.5 96.5 L 35.5 100.5 A 4 4 90 0 1 31.5 104.5 L 27.5 104.5 L 18.5 104.5 L 17.5 104.5 L 17.5 106.5 L 9.5 106.5 L 9.5 104.5 L 8.5 104.5 L 4.5 104.5 A 4 4 90 0 1 0.5 100.5 L 0.5 96.5 z" style="fill:#FFBF00;fill-opacity:1;stroke:#DAAF30;stroke-width:1;stroke-linecap:round;stroke-opacity:1;" /><text style="font-size:10px;fill:#282828;font-family:sans-serif;text-anchor:start"><tspan x="5" y="15">do</tspan></text></g></g><g transform="translate(667, 424)"><g transform="scale(1.5, 1.5)"><path d="m8.5 0.5 L 98.5 0.5 L 98.5 20.5 L 8.5 20.5 L 8.5 12.5 L 8.5 11.5 L 2.5 11.5 L 2.5 14.5 L 0.5 14.5 L 0.5 6.5 L 2.5 6.5 L 2.5 9.5 L 8.5 9.5 L 8.5 8.5 z" style="fill:#FF664B;fill-opacity:1;stroke:#EA4326;stroke-width:1;stroke-linecap:round;stroke-opacity:1;" /><text style="font-size:10px;fill:#282828;font-family:sans-serif;text-anchor:start"><tspan x="13" y="14">shape</tspan></text></g></g><g transform="translate(612, 456)"><g transform="scale(1.5, 1.5)"><path d="m8.5 0.5 L 88.5 0.5 L 88.5 20.5 L 8.5 20.5 L 8.5 12.5 L 8.5 11.5 L 2.5 11.5 L 2.5 14.5 L 0.5 14.5 L 0.5 6.5 L 2.5 6.5 L 2.5 9.5 L 8.5 9.5 L 8.5 8.5 z" style="fill:#FFBF00;fill-opacity:1;stroke:#DAAF30;stroke-width:1;stroke-linecap:round;stroke-opacity:1;" /><text style="font-size:10px;fill:#282828;font-family:sans-serif;text-anchor:start"><tspan x="13" y="14">length</tspan></text></g></g><g transform="translate(612, 487)"><g transform="scale(1.5, 1.5)"><path d="m8.5 0.5 L 88.5 0.5 L 88.5 20.5 L 8.5 20.5 L 8.5 12.5 L 8.5 11.5 L 2.5 11.5 L 2.5 14.5 L 0.5 14.5 L 0.5 6.5 L 2.5 6.5 L 2.5 9.5 L 8.5 9.5 L 8.5 8.5 z" style="fill:#FFBF00;fill-opacity:1;stroke:#DAAF30;stroke-width:1;stroke-linecap:round;stroke-opacity:1;" /><text style="font-size:10px;fill:#282828;font-family:sans-serif;text-anchor:start"><tspan x="13" y="14">sides</tspan></text></g></g><g transform="translate(595, 298)"><g transform="scale(1.5, 1.5)"><path d="m0.5 8.5 L 0.5 4.5 A 4 4 90 0 1 4.5 0.5 L 8.5 0.5 L 8.5 2.5 L 18.5 2.5 L 18.5 0.5 L 52.5 0.5 L 56.5 0.5 A 4 4 90 0 1 60.5 4.5 L 60.5 8.5 L 56.5 8.5 L 56.5 5.5 L 52.5 5.5 L 52.5 15.5 L 56.5 15.5 L 56.5 12.5 L 60.5 12.5 L 60.5 29.5 L 56.5 29.5 L 56.5 26.5 L 52.5 26.5 L 52.5 36.5 L 56.5 36.5 L 56.5 33.5 L 60.5 33.5 L 60.5 37.5 A 4 4 90 0 1 56.5 41.5 L 52.5 41.5 L 18.5 41.5 L 17.5 41.5 L 17.5 43.5 L 9.5 43.5 L 9.5 41.5 L 8.5 41.5 L 4.5 41.5 A 4 4 90 0 1 0.5 37.5 L 0.5 33.5 L 0.5 12.5 L 0.5 8.5 z" style="fill:#FFBF00;fill-opacity:1;stroke:#DAAF30;stroke-width:1;stroke-linecap:round;stroke-opacity:1;" /><text style="font-size:10px;fill:#282828;font-family:sans-serif;text-anchor:end"><tspan x="50" y="24">store in</tspan></text><text style="font-size:6.666666666666667px;fill:#282828;font-family:sans-serif;text-anchor:end"><tspan x="50" y="12">name</tspan></text><text style="font-size:6.666666666666667px;fill:#282828;font-family:sans-serif;text-anchor:end"><tspan x="50" y="33">value</tspan></text></g></g><g transform="translate(675, 298)"><g transform="scale(1.5, 1.5)"><path d="m8.5 0.5 L 98.5 0.5 L 98.5 20.5 L 8.5 20.5 L 8.5 12.5 L 8.5 11.5 L 2.5 11.5 L 2.5 14.5 L 0.5 14.5 L 0.5 6.5 L 2.5 6.5 L 2.5 9.5 L 8.5 9.5 L 8.5 8.5 z" style="fill:#FF664B;fill-opacity:1;stroke:#EA4326;stroke-width:1;stroke-linecap:round;stroke-opacity:1;" /><text style="font-size:10px;fill:#282828;font-family:sans-serif;text-anchor:start"><tspan x="13" y="14">depth</tspan></text></g></g><g transform="translate(675, 330)"><g transform="scale(1.5, 1.5)"><path d="m8.5 0.5 L 68.5 0.5 L 68.5 20.5 L 8.5 20.5 L 8.5 12.5 L 8.5 11.5 L 2.5 11.5 L 2.5 14.5 L 0.5 14.5 L 0.5 6.5 L 2.5 6.5 L 2.5 9.5 L 8.5 9.5 L 8.5 8.5 z" style="fill:#FF6EA1;fill-opacity:1;stroke:#FF2C76;stroke-width:1;stroke-linecap:round;stroke-opacity:1;" /><text style="font-size:10px;fill:#282828;font-family:sans-serif;text-anchor:start"><tspan x="13" y="14">6</tspan></text></g></g><g transform="translate(612, 519)"><g transform="scale(1.5, 1.5)"><path d="m8.5 0.5 L 88.5 0.5 L 88.5 20.5 L 8.5 20.5 L 8.5 12.5 L 8.5 11.5 L 2.5 11.5 L 2.5 14.5 L 0.5 14.5 L 0.5 6.5 L 2.5 6.5 L 2.5 9.5 L 8.5 9.5 L 8.5 8.5 z" style="fill:#FFBF00;fill-opacity:1;stroke:#DAAF30;stroke-width:1;stroke-linecap:round;stroke-opacity:1;" /><text style="font-size:10px;fill:#282828;font-family:sans-serif;text-anchor:start"><tspan x="13" y="14">depth</tspan></text></g></g><g transform="translate(1241, 152)"><g transform="scale(1.5, 1.5)"><path d="m8.5 0.5 L 78.5 0.5 L 78.5 20.5 L 8.5 20.5 L 8.5 12.5 L 8.5 11.5 L 2.5 11.5 L 2.5 14.5 L 0.5 14.5 L 0.5 6.5 L 2.5 6.5 L 2.5 9.5 L 8.5 9.5 L 8.5 8.5 z" style="fill:#FFBF00;fill-opacity:1;stroke:#DAAF30;stroke-width:1;stroke-linecap:round;stroke-opacity:1;" /><text style="font-size:10px;fill:#282828;font-family:sans-serif;text-anchor:start"><tspan x="13" y="14">arg 3</tspan></text></g></g><g transform="translate(1134, 152)"><g transform="scale(1.5, 1.5)"><path d="m0.5 8.5 L 0.5 4.5 A 4 4 90 0 1 4.5 0.5 L 8.5 0.5 L 8.5 2.5 L 18.5 2.5 L 18.5 0.5 L 27.5 0.5 L 31.5 0.5 A 4 4 90 0 1 35.5 4.5 L 35.5 8.5 L 35.5 17.5 A 8 8 90 0 0 27.5 25.5 A 8 8 90 0 0 35.5 33.5 L 35.5 37.5 A 4 4 90 0 1 31.5 41.5 L 27.5 41.5 L 26.5 41.5 L 26.5 43.5 L 18.5 43.5 L 18.5 41.5 L 17.5 41.5 L 13.5 41.5 A 5 5 90 0 0 8.5 46.5 L 8.5 50.5 L 8.5 54.5 L 8.5 369.5 L 8.5 373.5 A 5 5 90 0 0 13.5 378.5 L 17.5 378.5 L 17.5 380.5 L 27.5 380.5 L 27.5 378.5 L 35.5 378.5 L 35.5 384.5 L 35.5 390.5 L 35.5 394.5 A 4 4 90 0 1 31.5 398.5 L 27.5 398.5 L 18.5 398.5 L 17.5 398.5 L 17.5 400.5 L 9.5 400.5 L 9.5 398.5 L 8.5 398.5 L 4.5 398.5 A 4 4 90 0 1 0.5 394.5 L 0.5 390.5 z" style="fill:#D98A43;fill-opacity:1;stroke:#B7651A;stroke-width:1;stroke-linecap:round;stroke-opacity:1;" /><text style="font-size:10px;fill:#282828;font-family:sans-serif;text-anchor:start"><tspan x="5" y="19">if</tspan></text><text style="font-size:6.666666666666667px;fill:#282828;font-family:sans-serif;text-anchor:end"><tspan x="31" y="38">then</tspan></text></g></g><g transform="translate(1176, 152)"><g transform="scale(1.5, 1.5)"><g transform="matrix(1,0,0,1,0,-16)"> <path d="m0.5 41.5 A 7 7 90 0 1 7.5 34.5 L 8.5 34.5 L 8.5 24.5 A 8 8 90 0 1 16.5 16.5 L 50.5 16.5 L 50.5 24.5 L 46.5 24.5 L 46.5 21.5 L 42.5 21.5 L 42.5 31.5 L 46.5 31.5 L 46.5 28.5 L 50.5 28.5 L 50.5 45.5 L 46.5 45.5 L 46.5 42.5 L 42.5 42.5 L 42.5 52.5 L 46.5 52.5 L 46.5 49.5 L 50.5 49.5 L 50.5 57.5 L 20.5 57.5 L 8.5 57.5 L 8.5 49.5 L 8.5 48.5 L 7.5 48.5 A 7 7 90 0 1 0.5 41.5 z" style="fill:#D97DF5;fill-opacity:1;stroke:#B653D3;stroke-width:1;stroke-linecap:round;stroke-opacity:1;" /></g><text style="font-size:14px;fill:#282828;font-family:sans-serif;text-anchor:end"><tspan x="38" y="26">&gt;</tspan></text></g></g><g transform="translate(1241, 184)"><g transform="scale(1.5, 1.5)"><path d="m8.5 0.5 L 68.5 0.5 L 68.5 20.5 L 8.5 20.5 L 8.5 12.5 L 8.5 11.5 L 2.5 11.5 L 2.5 14.5 L 0.5 14.5 L 0.5 6.5 L 2.5 6.5 L 2.5 9.5 L 8.5 9.5 L 8.5 8.5 z" style="fill:#FF6EA1;fill-opacity:1;stroke:#FF2C76;stroke-width:1;stroke-linecap:round;stroke-opacity:1;" /><text style="font-size:10px;fill:#282828;font-family:sans-serif;text-anchor:start"><tspan x="13" y="14">1</tspan></text></g></g><g transform="translate(1176, 343)"><g transform="scale(1.5, 1.5)"><path d="m0.5 8.5 L 0.5 4.5 A 4 4 90 0 1 4.5 0.5 L 8.5 0.5 L 8.5 2.5 L 18.5 2.5 L 18.5 0.5 L 27.5 0.5 L 47.5 0.5 L 51.5 0.5 A 4 4 90 0 1 55.5 4.5 L 55.5 8.5 L 51.5 8.5 L 51.5 5.5 L 47.5 5.5 L 47.5 15.5 L 51.5 15.5 L 51.5 12.5 L 55.5 12.5 L 55.5 16.5 A 4 4 90 0 1 51.5 20.5 L 47.5 20.5 L 27.5 20.5 L 23.5 20.5 A 5 5 90 0 0 18.5 25.5 L 18.5 29.5 L 14.5 29.5 L 14.5 26.5 L 10.5 26.5 L 10.5 36.5 L 14.5 36.5 L 14.5 33.5 L 18.5 33.5 L 18.5 54.5 L 18.5 71.5 L 14.5 71.5 L 14.5 68.5 L 10.5 68.5 L 10.5 78.5 L 14.5 78.5 L 14.5 75.5 L 18.5 75.5 L 18.5 92.5 L 14.5 92.5 L 14.5 89.5 L 10.5 89.5 L 10.5 99.5 L 14.5 99.5 L 14.5 96.5 L 18.5 96.5 L 18.5 117.5 L 18.5 121.5 A 5 5 90 0 0 23.5 126.5 L 27.5 126.5 L 35.5 126.5 L 35.5 132.5 L 35.5 138.5 L 35.5 142.5 A 4 4 90 0 1 31.5 146.5 L 27.5 146.5 L 18.5 146.5 L 17.5 146.5 L 17.5 148.5 L 9.5 148.5 L 9.5 146.5 L 8.5 146.5 L 4.5 146.5 A 4 4 90 0 1 0.5 142.5 L 0.5 138.5 z" style="fill:#FFBF00;fill-opacity:1;stroke:#DAAF30;stroke-width:1;stroke-linecap:round;stroke-opacity:1;" /><text style="font-size:10px;fill:#282828;font-family:sans-serif;text-anchor:start"><tspan x="5" y="15">do</tspan></text></g></g><g transform="translate(1248, 343)"><g transform="scale(1.5, 1.5)"><path d="m8.5 0.5 L 98.5 0.5 L 98.5 20.5 L 8.5 20.5 L 8.5 12.5 L 8.5 11.5 L 2.5 11.5 L 2.5 14.5 L 0.5 14.5 L 0.5 6.5 L 2.5 6.5 L 2.5 9.5 L 8.5 9.5 L 8.5 8.5 z" style="fill:#FF664B;fill-opacity:1;stroke:#EA4326;stroke-width:1;stroke-linecap:round;stroke-opacity:1;" /><text style="font-size:10px;fill:#282828;font-family:sans-serif;text-anchor:start"><tspan x="13" y="14">shape</tspan></text></g></g><g transform="translate(1193, 375)"><g transform="scale(1.5, 1.5)"><path d="m8.5 8.5 L 8.5 4.5 A 4 4 90 0 1 12.5 0.5 L 16.5 0.5 L 26.5 0.5 L 56.5 0.5 L 60.5 0.5 A 4 4 90 0 1 64.5 4.5 L 64.5 8.5 L 60.5 8.5 L 60.5 5.5 L 56.5 5.5 L 56.5 15.5 L 60.5 15.5 L 60.5 12.5 L 64.5 12.5 L 64.5 29.5 L 60.5 29.5 L 60.5 26.5 L 56.5 26.5 L 56.5 36.5 L 60.5 36.5 L 60.5 33.5 L 64.5 33.5 L 64.5 37.5 A 4 4 90 0 1 60.5 41.5 L 56.5 41.5 L 26.5 41.5 L 16.5 41.5 L 12.5 41.5 A 4 4 90 0 1 8.5 37.5 L 8.5 33.5 L 8.5 12.5 L 8.5 11.5 L 2.5 11.5 L 2.5 14.5 L 0.5 14.5 L 0.5 6.5 L 2.5 6.5 L 2.5 9.5 L 8.5 9.5 L 8.5 8.5 z" style="fill:#FF6EA1;fill-opacity:1;stroke:#FF2C76;stroke-width:1;stroke-linecap:round;stroke-opacity:1;" /><text style="font-size:14px;fill:#282828;font-family:sans-serif;text-anchor:end"><tspan x="54" y="24">/</tspan></text><text style="font-size:9.333333333333334px;fill:#282828;font-family:sans-serif;text-anchor:end"><tspan x="54" y="12"></tspan></text><text style="font-size:9.333333333333334px;fill:#282828;font-family:sans-serif;text-anchor:end"><tspan x="54" y="33"></tspan></text></g></g><g transform="translate(1279, 407)"><g transform="scale(1.5, 1.5)"><path d="m8.5 0.5 L 68.5 0.5 L 68.5 20.5 L 8.5 20.5 L 8.5 12.5 L 8.5 11.5 L 2.5 11.5 L 2.5 14.5 L 0.5 14.5 L 0.5 6.5 L 2.5 6.5 L 2.5 9.5 L 8.5 9.5 L 8.5 8.5 z" style="fill:#FF6EA1;fill-opacity:1;stroke:#FF2C76;stroke-width:1;stroke-linecap:round;stroke-opacity:1;" /><text style="font-size:10px;fill:#282828;font-family:sans-serif;text-anchor:start"><tspan x="13" y="14">2</tspan></text></g></g><g transform="translate(1193, 469)"><g transform="scale(1.5, 1.5)"><path d="m8.5 8.5 L 8.5 4.5 A 4 4 90 0 1 12.5 0.5 L 16.5 0.5 L 26.5 0.5 L 56.5 0.5 L 60.5 0.5 A 4 4 90 0 1 64.5 4.5 L 64.5 8.5 L 60.5 8.5 L 60.5 5.5 L 56.5 5.5 L 56.5 15.5 L 60.5 15.5 L 60.5 12.5 L 64.5 12.5 L 64.5 29.5 L 60.5 29.5 L 60.5 26.5 L 56.5 26.5 L 56.5 36.5 L 60.5 36.5 L 60.5 33.5 L 64.5 33.5 L 64.5 37.5 A 4 4 90 0 1 60.5 41.5 L 56.5 41.5 L 26.5 41.5 L 16.5 41.5 L 12.5 41.5 A 4 4 90 0 1 8.5 37.5 L 8.5 33.5 L 8.5 12.5 L 8.5 11.5 L 2.5 11.5 L 2.5 14.5 L 0.5 14.5 L 0.5 6.5 L 2.5 6.5 L 2.5 9.5 L 8.5 9.5 L 8.5 8.5 z" style="fill:#FF6EA1;fill-opacity:1;stroke:#FF2C76;stroke-width:1;stroke-linecap:round;stroke-opacity:1;" /><text style="font-size:14px;fill:#282828;font-family:sans-serif;text-anchor:end"><tspan x="54" y="24">–</tspan></text><text style="font-size:9.333333333333334px;fill:#282828;font-family:sans-serif;text-anchor:end"><tspan x="54" y="12"></tspan></text><text style="font-size:9.333333333333334px;fill:#282828;font-family:sans-serif;text-anchor:end"><tspan x="54" y="33"></tspan></text></g></g><g transform="translate(1279, 501)"><g transform="scale(1.5, 1.5)"><path d="m8.5 0.5 L 68.5 0.5 L 68.5 20.5 L 8.5 20.5 L 8.5 12.5 L 8.5 11.5 L 2.5 11.5 L 2.5 14.5 L 0.5 14.5 L 0.5 6.5 L 2.5 6.5 L 2.5 9.5 L 8.5 9.5 L 8.5 8.5 z" style="fill:#FF6EA1;fill-opacity:1;stroke:#FF2C76;stroke-width:1;stroke-linecap:round;stroke-opacity:1;" /><text style="font-size:10px;fill:#282828;font-family:sans-serif;text-anchor:start"><tspan x="13" y="14">1</tspan></text></g></g><g transform="translate(1234, 311)"><g transform="scale(1.5, 1.5)"><path d="m8.5 0.5 L 78.5 0.5 L 78.5 20.5 L 8.5 20.5 L 8.5 12.5 L 8.5 11.5 L 2.5 11.5 L 2.5 14.5 L 0.5 14.5 L 0.5 6.5 L 2.5 6.5 L 2.5 9.5 L 8.5 9.5 L 8.5 8.5 z" style="fill:#FFBF00;fill-opacity:1;stroke:#DAAF30;stroke-width:1;stroke-linecap:round;stroke-opacity:1;" /><text style="font-size:10px;fill:#282828;font-family:sans-serif;text-anchor:start"><tspan x="13" y="14">arg 2</tspan></text></g></g><g transform="translate(1176, 564)"><g transform="scale(1.5, 1.5)"><path d="m0.5 8.5 L 0.5 4.5 A 4 4 90 0 1 4.5 0.5 L 8.5 0.5 L 8.5 2.5 L 18.5 2.5 L 18.5 0.5 L 52.5 0.5 L 56.5 0.5 A 4 4 90 0 1 60.5 4.5 L 60.5 8.5 L 56.5 8.5 L 56.5 5.5 L 52.5 5.5 L 52.5 15.5 L 56.5 15.5 L 56.5 12.5 L 60.5 12.5 L 60.5 16.5 A 4 4 90 0 1 56.5 20.5 L 52.5 20.5 L 18.5 20.5 L 17.5 20.5 L 17.5 22.5 L 9.5 22.5 L 9.5 20.5 L 8.5 20.5 L 4.5 20.5 A 4 4 90 0 1 0.5 16.5 L 0.5 12.5 L 0.5 8.5 z" style="fill:#92A9FF;fill-opacity:1;stroke:#5370DC;stroke-width:1;stroke-linecap:round;stroke-opacity:1;" /><text style="font-size:10px;fill:#282828;font-family:sans-serif;text-anchor:end"><tspan x="50" y="14">forward</tspan></text><text style="font-size:6.666666666666667px;fill:#282828;font-family:sans-serif;text-anchor:end"><tspan x="50" y="12"></tspan></text></g></g><g transform="translate(1256, 564)"><g transform="scale(1.5, 1.5)"><path d="m8.5 0.5 L 78.5 0.5 L 78.5 20.5 L 8.5 20.5 L 8.5 12.5 L 8.5 11.5 L 2.5 11.5 L 2.5 14.5 L 0.5 14.5 L 0.5 6.5 L 2.5 6.5 L 2.5 9.5 L 8.5 9.5 L 8.5 8.5 z" style="fill:#FFBF00;fill-opacity:1;stroke:#DAAF30;stroke-width:1;stroke-linecap:round;stroke-opacity:1;" /><text style="font-size:10px;fill:#282828;font-family:sans-serif;text-anchor:start"><tspan x="13" y="14">arg 1</tspan></text></g></g><g transform="translate(1176, 596)"><g transform="scale(1.5, 1.5)"><path d="m0.5 8.5 L 0.5 4.5 A 4 4 90 0 1 4.5 0.5 L 8.5 0.5 L 8.5 2.5 L 18.5 2.5 L 18.5 0.5 L 48.5 0.5 L 52.5 0.5 A 4 4 90 0 1 56.5 4.5 L 56.5 8.5 L 52.5 8.5 L 52.5 5.5 L 48.5 5.5 L 48.5 15.5 L 52.5 15.5 L 52.5 12.5 L 56.5 12.5 L 56.5 16.5 A 4 4 90 0 1 52.5 20.5 L 48.5 20.5 L 18.5 20.5 L 17.5 20.5 L 17.5 22.5 L 9.5 22.5 L 9.5 20.5 L 8.5 20.5 L 4.5 20.5 A 4 4 90 0 1 0.5 16.5 L 0.5 12.5 L 0.5 8.5 z" style="fill:#92A9FF;fill-opacity:1;stroke:#5370DC;stroke-width:1;stroke-linecap:round;stroke-opacity:1;" /><text style="font-size:10px;fill:#282828;font-family:sans-serif;text-anchor:end"><tspan x="46" y="14">right</tspan></text><text style="font-size:6.666666666666667px;fill:#282828;font-family:sans-serif;text-anchor:end"><tspan x="46" y="12"></tspan></text></g></g><g transform="translate(1250, 596)"><g transform="scale(1.5, 1.5)"><path d="m8.5 8.5 L 8.5 4.5 A 4 4 90 0 1 12.5 0.5 L 16.5 0.5 L 26.5 0.5 L 56.5 0.5 L 60.5 0.5 A 4 4 90 0 1 64.5 4.5 L 64.5 8.5 L 60.5 8.5 L 60.5 5.5 L 56.5 5.5 L 56.5 15.5 L 60.5 15.5 L 60.5 12.5 L 64.5 12.5 L 64.5 29.5 L 60.5 29.5 L 60.5 26.5 L 56.5 26.5 L 56.5 36.5 L 60.5 36.5 L 60.5 33.5 L 64.5 33.5 L 64.5 37.5 A 4 4 90 0 1 60.5 41.5 L 56.5 41.5 L 26.5 41.5 L 16.5 41.5 L 12.5 41.5 A 4 4 90 0 1 8.5 37.5 L 8.5 33.5 L 8.5 12.5 L 8.5 11.5 L 2.5 11.5 L 2.5 14.5 L 0.5 14.5 L 0.5 6.5 L 2.5 6.5 L 2.5 9.5 L 8.5 9.5 L 8.5 8.5 z" style="fill:#FF6EA1;fill-opacity:1;stroke:#FF2C76;stroke-width:1;stroke-linecap:round;stroke-opacity:1;" /><text style="font-size:14px;fill:#282828;font-family:sans-serif;text-anchor:end"><tspan x="54" y="24">/</tspan></text><text style="font-size:9.333333333333334px;fill:#282828;font-family:sans-serif;text-anchor:end"><tspan x="54" y="12"></tspan></text><text style="font-size:9.333333333333334px;fill:#282828;font-family:sans-serif;text-anchor:end"><tspan x="54" y="33"></tspan></text></g></g><g transform="translate(1336, 596)"><g transform="scale(1.5, 1.5)"><path d="m8.5 0.5 L 68.5 0.5 L 68.5 20.5 L 8.5 20.5 L 8.5 12.5 L 8.5 11.5 L 2.5 11.5 L 2.5 14.5 L 0.5 14.5 L 0.5 6.5 L 2.5 6.5 L 2.5 9.5 L 8.5 9.5 L 8.5 8.5 z" style="fill:#FF6EA1;fill-opacity:1;stroke:#FF2C76;stroke-width:1;stroke-linecap:round;stroke-opacity:1;" /><text style="font-size:10px;fill:#282828;font-family:sans-serif;text-anchor:start"><tspan x="13" y="14">360</tspan></text></g></g><g transform="translate(1176, 628)"><g transform="scale(1.5, 1.5)"><path d="m0.5 8.5 L 0.5 4.5 A 4 4 90 0 1 4.5 0.5 L 8.5 0.5 L 8.5 2.5 L 18.5 2.5 L 18.5 0.5 L 38.5 0.5 L 42.5 0.5 A 4 4 90 0 1 46.5 4.5 L 46.5 8.5 L 46.5 12.5 L 46.5 16.5 A 4 4 90 0 1 42.5 20.5 L 38.5 20.5 L 18.5 20.5 L 17.5 20.5 L 17.5 22.5 L 9.5 22.5 L 9.5 20.5 L 8.5 20.5 L 4.5 20.5 A 4 4 90 0 1 0.5 16.5 L 0.5 12.5 z" style="fill:#C4C4C4;fill-opacity:1;stroke:#A0A0A0;stroke-width:1;stroke-linecap:round;stroke-opacity:1;" /><text style="font-size:10px;fill:#282828;font-family:sans-serif;text-anchor:end"><tspan x="36" y="14">↓</tspan></text></g></g><g transform="translate(1336, 628)"><g transform="scale(1.5, 1.5)"><path d="m8.5 0.5 L 78.5 0.5 L 78.5 20.5 L 8.5 20.5 L 8.5 12.5 L 8.5 11.5 L 2.5 11.5 L 2.5 14.5 L 0.5 14.5 L 0.5 6.5 L 2.5 6.5 L 2.5 9.5 L 8.5 9.5 L 8.5 8.5 z" style="fill:#FFBF00;fill-opacity:1;stroke:#DAAF30;stroke-width:1;stroke-linecap:round;stroke-opacity:1;" /><text style="font-size:10px;fill:#282828;font-family:sans-serif;text-anchor:start"><tspan x="13" y="14">arg 2</tspan></text></g></g><g transform="translate(1279, 375)"><g transform="scale(1.5, 1.5)"><path d="m8.5 0.5 L 78.5 0.5 L 78.5 20.5 L 8.5 20.5 L 8.5 12.5 L 8.5 11.5 L 2.5 11.5 L 2.5 14.5 L 0.5 14.5 L 0.5 6.5 L 2.5 6.5 L 2.5 9.5 L 8.5 9.5 L 8.5 8.5 z" style="fill:#FFBF00;fill-opacity:1;stroke:#DAAF30;stroke-width:1;stroke-linecap:round;stroke-opacity:1;" /><text style="font-size:10px;fill:#282828;font-family:sans-serif;text-anchor:start"><tspan x="13" y="14">arg 1</tspan></text></g></g><g transform="translate(1279, 469)"><g transform="scale(1.5, 1.5)"><path d="m8.5 0.5 L 78.5 0.5 L 78.5 20.5 L 8.5 20.5 L 8.5 12.5 L 8.5 11.5 L 2.5 11.5 L 2.5 14.5 L 0.5 14.5 L 0.5 6.5 L 2.5 6.5 L 2.5 9.5 L 8.5 9.5 L 8.5 8.5 z" style="fill:#FFBF00;fill-opacity:1;stroke:#DAAF30;stroke-width:1;stroke-linecap:round;stroke-opacity:1;" /><text style="font-size:10px;fill:#282828;font-family:sans-serif;text-anchor:start"><tspan x="13" y="14">arg 3</tspan></text></g></g><g transform="translate(1193, 438)"><g transform="scale(1.5, 1.5)"><path d="m8.5 0.5 L 78.5 0.5 L 78.5 20.5 L 8.5 20.5 L 8.5 12.5 L 8.5 11.5 L 2.5 11.5 L 2.5 14.5 L 0.5 14.5 L 0.5 6.5 L 2.5 6.5 L 2.5 9.5 L 8.5 9.5 L 8.5 8.5 z" style="fill:#FFBF00;fill-opacity:1;stroke:#DAAF30;stroke-width:1;stroke-linecap:round;stroke-opacity:1;" /><text style="font-size:10px;fill:#282828;font-family:sans-serif;text-anchor:start"><tspan x="13" y="14">arg 2</tspan></text></g></g><g transform="translate(595, 171)"><g transform="scale(1.5, 1.5)"><path d="m0.5 8.5 L 0.5 4.5 A 4 4 90 0 1 4.5 0.5 L 8.5 0.5 L 8.5 2.5 L 18.5 2.5 L 18.5 0.5 L 48.5 0.5 L 52.5 0.5 A 4 4 90 0 1 56.5 4.5 L 56.5 8.5 L 56.5 12.5 L 56.5 16.5 A 4 4 90 0 1 52.5 20.5 L 48.5 20.5 L 18.5 20.5 L 17.5 20.5 L 17.5 22.5 L 9.5 22.5 L 9.5 20.5 L 8.5 20.5 L 4.5 20.5 A 4 4 90 0 1 0.5 16.5 L 0.5 12.5 z" style="fill:#92A9FF;fill-opacity:1;stroke:#5370DC;stroke-width:1;stroke-linecap:round;stroke-opacity:1;" /><text style="font-size:10px;fill:#282828;font-family:sans-serif;text-anchor:end"><tspan x="46" y="14">clear</tspan></text></g></g><g transform="translate(1148, 279)"><g transform="scale(1.5, 1.5)"><path d="m0.5 8.5 L 0.5 4.5 A 4 4 90 0 1 4.5 0.5 L 8.5 0.5 L 8.5 2.5 L 18.5 2.5 L 18.5 0.5 L 27.5 0.5 L 37.5 0.5 L 41.5 0.5 A 4 4 90 0 1 45.5 4.5 L 45.5 8.5 L 45.5 12.5 L 45.5 16.5 A 4 4 90 0 1 41.5 20.5 L 37.5 20.5 L 27.5 20.5 L 26.5 20.5 L 26.5 22.5 L 18.5 22.5 L 18.5 20.5 L 17.5 20.5 L 13.5 20.5 A 5 5 90 0 0 8.5 25.5 L 8.5 29.5 L 8.5 33.5 L 8.5 264.5 L 8.5 268.5 A 5 5 90 0 0 13.5 273.5 L 17.5 273.5 L 17.5 275.5 L 27.5 275.5 L 27.5 273.5 L 35.5 273.5 L 35.5 279.5 L 35.5 285.5 L 35.5 289.5 A 4 4 90 0 1 31.5 293.5 L 27.5 293.5 L 18.5 293.5 L 17.5 293.5 L 17.5 295.5 L 9.5 295.5 L 9.5 293.5 L 8.5 293.5 L 4.5 293.5 A 4 4 90 0 1 0.5 289.5 L 0.5 285.5 z" style="fill:#92A9FF;fill-opacity:1;stroke:#5370DC;stroke-width:1;stroke-linecap:round;stroke-opacity:1;" /><text style="font-size:10px;fill:#282828;font-family:sans-serif;text-anchor:start"><tspan x="5" y="15">fill</tspan></text></g></g><g transform="translate(1148, 215)"><g transform="scale(1.5, 1.5)"><path d="m0.5 8.5 L 0.5 4.5 A 4 4 90 0 1 4.5 0.5 L 8.5 0.5 L 8.5 2.5 L 18.5 2.5 L 18.5 0.5 L 57.5 0.5 L 61.5 0.5 A 4 4 90 0 1 65.5 4.5 L 65.5 8.5 L 61.5 8.5 L 61.5 5.5 L 57.5 5.5 L 57.5 15.5 L 61.5 15.5 L 61.5 12.5 L 65.5 12.5 L 65.5 16.5 A 4 4 90 0 1 61.5 20.5 L 57.5 20.5 L 18.5 20.5 L 17.5 20.5 L 17.5 22.5 L 9.5 22.5 L 9.5 20.5 L 8.5 20.5 L 4.5 20.5 A 4 4 90 0 1 0.5 16.5 L 0.5 12.5 L 0.5 8.5 z" style="fill:#92A9FF;fill-opacity:1;stroke:#5370DC;stroke-width:1;stroke-linecap:round;stroke-opacity:1;" /><text style="font-size:10px;fill:#282828;font-family:sans-serif;text-anchor:end"><tspan x="55" y="14">set color</tspan></text><text style="font-size:6.666666666666667px;fill:#282828;font-family:sans-serif;text-anchor:end"><tspan x="55" y="12"></tspan></text></g></g><g transform="translate(1235, 215)"><g transform="scale(1.5, 1.5)"><path d="m8.5 8.5 L 8.5 4.5 A 4 4 90 0 1 12.5 0.5 L 16.5 0.5 L 26.5 0.5 L 62.5 0.5 L 66.5 0.5 A 4 4 90 0 1 70.5 4.5 L 70.5 8.5 L 66.5 8.5 L 66.5 5.5 L 62.5 5.5 L 62.5 15.5 L 66.5 15.5 L 66.5 12.5 L 70.5 12.5 L 70.5 29.5 L 66.5 29.5 L 66.5 26.5 L 62.5 26.5 L 62.5 36.5 L 66.5 36.5 L 66.5 33.5 L 70.5 33.5 L 70.5 37.5 A 4 4 90 0 1 66.5 41.5 L 62.5 41.5 L 26.5 41.5 L 16.5 41.5 L 12.5 41.5 A 4 4 90 0 1 8.5 37.5 L 8.5 33.5 L 8.5 12.5 L 8.5 11.5 L 2.5 11.5 L 2.5 14.5 L 0.5 14.5 L 0.5 6.5 L 2.5 6.5 L 2.5 9.5 L 8.5 9.5 L 8.5 8.5 z" style="fill:#FF6EA1;fill-opacity:1;stroke:#FF2C76;stroke-width:1;stroke-linecap:round;stroke-opacity:1;" /><text style="font-size:10px;fill:#282828;font-family:sans-serif;text-anchor:end"><tspan x="60" y="23">random</tspan></text><text style="font-size:6.666666666666667px;fill:#282828;font-family:sans-serif;text-anchor:end"><tspan x="60" y="12">min</tspan></text><text style="font-size:6.666666666666667px;fill:#282828;font-family:sans-serif;text-anchor:end"><tspan x="60" y="33">max</tspan></text></g></g><g transform="translate(1330, 215)"><g transform="scale(1.5, 1.5)"><path d="m8.5 0.5 L 68.5 0.5 L 68.5 20.5 L 8.5 20.5 L 8.5 12.5 L 8.5 11.5 L 2.5 11.5 L 2.5 14.5 L 0.5 14.5 L 0.5 6.5 L 2.5 6.5 L 2.5 9.5 L 8.5 9.5 L 8.5 8.5 z" style="fill:#FF6EA1;fill-opacity:1;stroke:#FF2C76;stroke-width:1;stroke-linecap:round;stroke-opacity:1;" /><text style="font-size:10px;fill:#282828;font-family:sans-serif;text-anchor:start"><tspan x="13" y="14">0</tspan></text></g></g><g transform="translate(1330, 247)"><g transform="scale(1.5, 1.5)"><path d="m8.5 0.5 L 68.5 0.5 L 68.5 20.5 L 8.5 20.5 L 8.5 12.5 L 8.5 11.5 L 2.5 11.5 L 2.5 14.5 L 0.5 14.5 L 0.5 6.5 L 2.5 6.5 L 2.5 9.5 L 8.5 9.5 L 8.5 8.5 z" style="fill:#FF6EA1;fill-opacity:1;stroke:#FF2C76;stroke-width:1;stroke-linecap:round;stroke-opacity:1;" /><text style="font-size:10px;fill:#282828;font-family:sans-serif;text-anchor:start"><tspan x="13" y="14">100</tspan></text></g></g><g transform="translate(1148, 247)"><g transform="scale(1.5, 1.5)"><path d="m0.5 8.5 L 0.5 4.5 A 4 4 90 0 1 4.5 0.5 L 8.5 0.5 L 8.5 2.5 L 18.5 2.5 L 18.5 0.5 L 38.5 0.5 L 42.5 0.5 A 4 4 90 0 1 46.5 4.5 L 46.5 8.5 L 46.5 12.5 L 46.5 16.5 A 4 4 90 0 1 42.5 20.5 L 38.5 20.5 L 18.5 20.5 L 17.5 20.5 L 17.5 22.5 L 9.5 22.5 L 9.5 20.5 L 8.5 20.5 L 4.5 20.5 A 4 4 90 0 1 0.5 16.5 L 0.5 12.5 z" style="fill:#C4C4C4;fill-opacity:1;stroke:#A0A0A0;stroke-width:1;stroke-linecap:round;stroke-opacity:1;" /><text style="font-size:10px;fill:#282828;font-family:sans-serif;text-anchor:end"><tspan x="36" y="14">↓</tspan></text></g></g><g transform="translate(595, 203)"><g transform="scale(1.5, 1.5)"><path d="m0.5 8.5 L 0.5 4.5 A 4 4 90 0 1 4.5 0.5 L 8.5 0.5 L 8.5 2.5 L 18.5 2.5 L 18.5 0.5 L 73.5 0.5 L 77.5 0.5 A 4 4 90 0 1 81.5 4.5 L 81.5 8.5 L 77.5 8.5 L 77.5 5.5 L 73.5 5.5 L 73.5 15.5 L 77.5 15.5 L 77.5 12.5 L 81.5 12.5 L 81.5 16.5 A 4 4 90 0 1 77.5 20.5 L 73.5 20.5 L 18.5 20.5 L 17.5 20.5 L 17.5 22.5 L 9.5 22.5 L 9.5 20.5 L 8.5 20.5 L 4.5 20.5 A 4 4 90 0 1 0.5 16.5 L 0.5 12.5 L 0.5 8.5 z" style="fill:#92A9FF;fill-opacity:1;stroke:#5370DC;stroke-width:1;stroke-linecap:round;stroke-opacity:1;" /><text style="font-size:10px;fill:#282828;font-family:sans-serif;text-anchor:end"><tspan x="71" y="14">set pen size</tspan></text><text style="font-size:6.666666666666667px;fill:#282828;font-family:sans-serif;text-anchor:end"><tspan x="71" y="12"></tspan></text></g></g><g transform="translate(706, 203)"><g transform="scale(1.5, 1.5)"><path d="m8.5 0.5 L 68.5 0.5 L 68.5 20.5 L 8.5 20.5 L 8.5 12.5 L 8.5 11.5 L 2.5 11.5 L 2.5 14.5 L 0.5 14.5 L 0.5 6.5 L 2.5 6.5 L 2.5 9.5 L 8.5 9.5 L 8.5 8.5 z" style="fill:#FF6EA1;fill-opacity:1;stroke:#FF2C76;stroke-width:1;stroke-linecap:round;stroke-opacity:1;" /><text style="font-size:10px;fill:#282828;font-family:sans-serif;text-anchor:start"><tspan x="13" y="14">1</tspan></text></g></g></svg>