<?xml version="1.0" encoding="UTF-8" standalone="no"?>
<svg
   xmlns:dc="http://purl.org/dc/elements/1.1/"
   xmlns:cc="http://creativecommons.org/ns#"
   xmlns:rdf="http://www.w3.org/1999/02/22-rdf-syntax-ns#"
   xmlns:svg="http://www.w3.org/2000/svg"
   xmlns="http://www.w3.org/2000/svg"
   xmlns:sodipodi="http://sodipodi.sourceforge.net/DTD/sodipodi-0.dtd"
   xmlns:inkscape="http://www.inkscape.org/namespaces/inkscape"
   inkscape:version="1.1-dev (ddb55ca, 2020-02-02)"
   sodipodi:docname="Intermediate Spikey Snowflake-For Cutting.svg"
   id="svg907"
   version="1.1"
   height="945"
   width="1680">
  <metadata
     id="metadata913">
    <rdf:RDF>
      <cc:Work
         rdf:about="">
        <dc:format>image/svg+xml</dc:format>
        <dc:type
           rdf:resource="http://purl.org/dc/dcmitype/StillImage" />
        <dc:title></dc:title>
      </cc:Work>
    </rdf:RDF>
  </metadata>
  <defs
     id="defs911" />
  <sodipodi:namedview
     inkscape:current-layer="svg907"
     inkscape:window-maximized="0"
     inkscape:window-y="25"
     inkscape:window-x="0"
     inkscape:cy="534.8399"
     inkscape:cx="595.34998"
     inkscape:zoom="0.47261857"
     showgrid="false"
     id="namedview909"
     inkscape:window-height="997"
     inkscape:window-width="1680"
     inkscape:pageshadow="2"
     inkscape:pageopacity="0"
     guidetolerance="10"
     gridtolerance="10"
     objecttolerance="10"
     borderopacity="1"
     bordercolor="#666666"
     pagecolor="#ffffff" />
  <path
     inkscape:connector-curvature="0"
     id="path972"
     d="M 260.25131,24.727977 217.931,98.028757 h 16.36719 l -12.47071,21.599613 -21.59961,-12.4707 14.17383,-8.183603 -73.30078,-42.32031 v 84.640623 l 14.17383,-8.18359 v 24.94141 h -24.94141 l 8.18359,-14.17383 H 53.876307 l 42.32031,73.30078 8.183603,-14.17383 12.4707,21.59961 -21.599613,12.47071 v -16.36719 l -73.30078,42.32031 73.30078,42.32031 v -16.36719 l 21.599613,12.47071 -12.4707,21.59961 -8.183603,-14.17383 -42.32031,73.30078 h 84.640623 l -8.18359,-14.17383 h 24.94141 v 24.94141 l -14.17383,-8.18359 v 84.64062 l 73.30078,-42.32031 -14.17383,-8.1836 21.59961,-12.4707 12.47071,21.59961 H 217.931 l 42.32031,73.30078 42.32031,-73.30078 h -16.36719 l 12.47071,-21.59961 21.59961,12.4707 -14.17383,8.1836 73.30078,42.32031 v -84.64062 l -14.17383,8.18359 v -24.94141 h 24.94141 l -8.18359,14.17383 h 84.64062 l -42.3203,-73.30078 -8.18361,14.17383 -12.4707,-21.59961 21.59961,-12.47071 v 16.36719 l 73.3008,-42.32031 -73.3008,-42.32031 v 16.36719 l -21.59961,-12.47071 12.4707,-21.59961 8.18361,14.17383 42.3203,-73.30078 h -84.64062 l 8.18359,14.17383 h -24.94141 v -24.94141 l 14.17383,8.18359 V 56.653757 l -73.30078,42.32031 14.17383,8.183603 -21.59961,12.4707 -12.47071,-21.599613 h 16.36719 z m -2.85938,73.30078 h 2.85938 2.85938 L 280.431,128.02876 h -11.57422 l -8.60547,-14.9043 -8.60547,14.9043 h -11.57422 z m -77.16406,20.675783 30,17.32031 -10.02539,5.78711 -14.90234,-8.60351 v 17.20898 l -10.02539,5.78711 v -34.64062 l 2.47656,-1.42969 z m 160.04688,0 2.47656,1.42969 2.47656,1.42969 v 34.64062 l -10.02539,-5.78711 v -17.20898 l -14.90234,8.60351 -10.02539,-5.78711 z m -110.83789,29.32422 h 10.66211 l -7.28125,12.61328 -12.61524,-7.2832 z m 50.96679,0 h 10.66211 l 9.23438,5.33008 -12.61524,7.2832 z m -20.15234,5.0957 10.11328,17.51758 -0.11328,0.0664 -10,5.77343 -10,-5.77343 -0.11328,-0.0664 z m -54.95117,14.72461 17.51758,10.11328 -0.0664,0.11524 -5.77344,10 H 205.431 205.30014 Z m 109.90234,0 v 20.22852 h -0.13086 -11.54687 l -5.77344,-10 -0.0664,-0.11524 z m -129.90234,5.66211 v 14.56641 h -14.56641 l 5.33008,-9.23633 z m 149.90234,0 9.23633,5.33008 5.33008,9.23633 h -14.56641 z m -216.41601,4.54102 h 34.64062 l -5.78711,10.02539 H 130.431 l 8.60351,14.90234 -5.78711,10.02539 -17.32031,-30 1.42969,-2.47656 z m 248.28906,0 h 34.64062 l 1.42969,2.47656 1.42969,2.47656 -17.32031,30 -5.78711,-10.02539 8.60351,-14.90234 h -17.20898 z m -126.9375,9.91015 0.11328,0.0664 -0.084,0.0488 h -0.0957 z m 40.22656,0 0.0664,0.11524 h -0.0957 l -0.084,-0.0488 z m -115.29297,20.11524 h 20.22852 v 0.13086 11.54687 l -10,5.77344 -0.11524,0.0664 z m 40.22852,0 h 0.13086 l -0.0469,0.082 h -0.002 v 0.002 l -0.082,0.0469 z m 40.22461,0 h 0.002 4.72461 v 17.63086 l -8.81641,-15.26953 z m 24.72656,0 h 4.72461 0.002 l 4.08985,2.36133 -8.81641,15.26953 z m 44.82031,0 h 0.13086 v 0.13086 l -0.082,-0.0469 v -0.002 h -0.002 z m 20.13086,0 H 355.431 l -10.11328,17.51758 -0.11524,-0.0664 -10,-5.77344 v -11.54687 z m -111.08789,12.36133 8.81641,15.26953 -15.26953,-8.81641 2.36132,-4.08984 0.002,-0.002 z m 72.27344,0 4.08984,2.36132 0.002,0.002 2.36132,4.08984 -15.26953,8.81641 z m -145.80664,2.54101 7.2832,12.61524 -12.61328,7.28125 v -10.66211 z m 219.33984,0 5.33008,9.23438 v 10.66211 l -12.61328,-7.28125 z m -244.66992,19.86914 v 11.57422 l -14.9043,8.60547 14.9043,8.60547 v 11.57422 L 95.251307,265.88814 v -2.85938 -2.85938 z m 60.04883,0 v 0.0957 l -0.0488,0.084 -0.0664,-0.11328 z m 149.90234,0 0.11524,0.0664 -0.0664,0.11328 -0.0488,-0.084 z m 60.04883,0 30,17.32031 v 2.85938 2.85938 l -30,17.32031 v -11.57422 l 14.9043,-8.60547 -14.9043,-8.60547 z m -187.58984,1.36328 15.26953,8.81641 h -17.63086 v -4.72461 -0.002 z m 105.17968,0 2.36133,4.08985 v 0.002 4.72461 h -17.63086 z m -144.97656,8.70313 0.0664,0.11328 5.77343,10 -5.77343,10 -0.0664,0.11328 -17.51758,-10.11328 z m 184.77344,0 17.51758,10.11328 -17.51758,10.11328 -0.0664,-0.11328 -5.77343,-10 5.77343,-10 z M 205.30014,273.02876 H 222.931 l -15.26953,8.81641 -2.36133,-4.08985 v -0.002 z m 92.27148,0 h 17.63086 v 4.72461 0.002 l -2.36133,4.08985 z m -112.32031,10 0.0488,0.084 v 0.0957 l -0.11524,-0.0664 z m 150,0 0.0664,0.11328 -0.11524,0.0664 v -0.0957 z m -190,0.15234 12.61328,7.28125 -7.2832,12.61524 -5.33008,-9.23438 z m 230,0 v 10.66211 l -5.33008,9.23438 -7.2832,-12.61524 z m -142.32031,7.16797 -8.81641,15.26953 -4.08984,-2.36132 v -0.002 h -0.002 l -2.36132,-4.08984 z m 54.64062,0 15.26953,8.81641 -2.36132,4.08984 h -0.002 v 0.002 l -4.08984,2.36132 z m -37.32031,10 v 17.63086 h -4.72461 -0.002 l -4.08985,-2.36133 z m 20,0 8.81641,15.26953 -4.08985,2.36133 h -0.002 -4.72461 z m -95.06641,0.11328 0.11524,0.0664 10,5.77344 v 11.54687 0.13086 h -20.22852 z m 170.13282,0 10.11328,17.51758 h -20.22852 v -0.13086 -11.54687 l 10,-5.77344 z m -212.07032,12.58985 5.78711,10.02539 -8.60351,14.90234 h 17.20898 l 5.78711,10.02539 h -34.64062 l -1.42969,-2.47656 -1.42969,-2.47656 z m 254.00782,0 17.32031,30 -1.42969,2.47656 -1.42969,2.47656 h -34.64062 l 5.78711,-10.02539 h 17.20898 l -8.60351,-14.90234 z m -181.95508,4.79687 0.082,0.0469 0.002,0.002 0.0469,0.082 h -0.13086 z m 109.90234,0 v 0.13086 h -0.13086 l 0.0469,-0.082 0.002,-0.002 z m -144.46875,20.13086 h 14.56641 v 14.56641 l -9.23633,-5.33008 z m 34.56641,0 h 0.13086 11.54687 l 5.77344,10 0.0664,0.11524 -17.51758,10.11328 z m 34.77148,0 h 0.0957 l 0.084,0.0488 -0.11328,0.0664 z m 40.26367,0 h 0.0957 l -0.0664,0.11524 -0.11328,-0.0664 z m 23.18946,0 h 11.54687 0.13086 v 20.22852 l -17.51758,-10.11328 0.0664,-0.11524 z m 31.67773,0 h 14.56641 l -5.33008,9.23633 -9.23633,5.33008 z m -74.95117,11.59571 10,5.77343 0.11328,0.0664 -10.11328,17.51758 -10.11328,-17.51758 0.11328,-0.0664 z m -27.43359,15.83984 7.28125,12.61328 h -10.66211 l -9.23438,-5.33008 z m 54.86718,0 12.61524,7.2832 -9.23438,5.33008 h -10.66211 z m -112.41015,4.4375 10.02539,5.78711 v 17.20898 l 14.90234,-8.60351 10.02539,5.78711 -30,17.32031 -2.47656,-1.42969 -2.47656,-1.42969 z m 169.95312,0 v 34.64062 l -2.47656,1.42969 -2.47656,1.42969 -30,-17.32031 10.02539,-5.78711 14.90234,8.60351 v -17.20898 z m -105.15625,28.17578 h 11.57422 l 8.60547,14.9043 8.60547,-14.9043 H 280.431 l -17.32031,30 h -2.85938 -2.85938 z"
     style="color:#000000;font-style:normal;font-variant:normal;font-weight:normal;font-stretch:normal;font-size:medium;line-height:normal;font-family:sans-serif;font-variant-ligatures:normal;font-variant-position:normal;font-variant-caps:normal;font-variant-numeric:normal;font-variant-alternates:normal;font-variant-east-asian:normal;font-feature-settings:normal;font-variation-settings:normal;text-indent:0;text-align:start;text-decoration:none;text-decoration-line:none;text-decoration-style:solid;text-decoration-color:#000000;letter-spacing:normal;word-spacing:normal;text-transform:none;writing-mode:lr-tb;direction:ltr;text-orientation:mixed;dominant-baseline:auto;baseline-shift:baseline;text-anchor:start;white-space:normal;shape-padding:0;shape-margin:0;inline-size:0;clip-rule:nonzero;display:inline;overflow:visible;visibility:visible;opacity:1;isolation:auto;mix-blend-mode:normal;color-interpolation:sRGB;color-interpolation-filters:linearRGB;solid-color:#000000;solid-opacity:1;vector-effect:none;fill:none;fill-opacity:1;fill-rule:nonzero;stroke:#ff0000;stroke-width:0.377953;stroke-linecap:round;stroke-linejoin:miter;stroke-miterlimit:4;stroke-dasharray:none;stroke-dashoffset:0;stroke-opacity:1;color-rendering:auto;image-rendering:auto;shape-rendering:auto;text-rendering:auto;enable-background:accumulate;stop-color:#000000;stop-opacity:1" />
</svg>
