<?xml version="1.0" encoding="UTF-8" standalone="no"?><svg xmlns="http://www.w3.org/2000/svg" width="1680" height="945"><g transform="scale(1,1)"><path d="M 840,472.5 765,472.5 840,342.5961894323342 915,472.5 840,472.5 " style="stroke-linecap:round;fill:none;stroke:rgb(0,193,172);stroke-opacity:1;stroke-width:15pt;" /><path d="M 840,347.5 802.5,347.5 840,282.5480947161671 877.5,347.5 840,347.5 " style="stroke-linecap:round;fill:none;stroke:rgb(0,193,172);stroke-opacity:1;stroke-width:15pt;" /><path d="M 840,297.5 815,297.5 840,254.19872981077805 865,297.5 840,297.5 " style="stroke-linecap:round;fill:none;stroke:rgb(0,193,172);stroke-opacity:1;stroke-width:15pt;" /><path d="M 840,472.5 775.048094716167,435 904.9519052838328,360 904.9519052838328,510 840,472.5 " style="stroke-linecap:round;fill:none;stroke:rgb(0,193,172);stroke-opacity:1;stroke-width:15pt;" /><path d="M 902.5,364.24682452694515 870.0240473580835,345.49682452694515 934.9759526419164,307.99682452694515 934.9759526419164,382.99682452694515 902.4999999999999,364.24682452694515 " style="stroke-linecap:round;fill:none;stroke:rgb(0,193,172);stroke-opacity:1;stroke-width:15pt;" /><path d="M 927.4999999999999,320.9455543377232 905.8493649053889,308.4455543377232 949.1506350946108,283.4455543377232 949.1506350946108,333.4455543377232 927.4999999999999,320.9455543377232 " style="stroke-linecap:round;fill:none;stroke:rgb(0,193,172);stroke-opacity:1;stroke-width:15pt;" /><path d="M 840,472.5 802.5,407.54809471616716 952.5,407.54809471616716 877.5,537.451905283833 840,472.5000000000001 " style="stroke-linecap:round;fill:none;stroke:rgb(0,193,172);stroke-opacity:1;stroke-width:15pt;" /><path d="M 948.2531754730549,410.0000000000001 929.5031754730549,377.5240473580837 1004.5031754730549,377.5240473580837 967.0031754730549,442.4759526419166 948.2531754730549,410.00000000000017 " style="stroke-linecap:round;fill:none;stroke:rgb(0,193,172);stroke-opacity:1;stroke-width:15pt;" /><path d="M 991.5544456622767,385.00000000000017 979.0544456622767,363.3493649053892 1029.0544456622767,363.3493649053892 1004.0544456622767,406.6506350946112 991.5544456622767,385.0000000000002 " style="stroke-linecap:round;fill:none;stroke:rgb(0,193,172);stroke-opacity:1;stroke-width:15pt;" /><path d="M 840,472.5 840,397.5 969.9038105676658,472.5 840,547.5000000000001 840,472.5000000000001 " style="stroke-linecap:round;fill:none;stroke:rgb(0,193,172);stroke-opacity:1;stroke-width:15pt;" /><path d="M 965,472.5000000000001 965,435.0000000000001 1029.951905283833,472.5000000000001 965.0000000000001,510.00000000000017 965.0000000000001,472.50000000000017 " style="stroke-linecap:round;fill:none;stroke:rgb(0,193,172);stroke-opacity:1;stroke-width:15pt;" /><path d="M 1015.0000000000001,472.50000000000017 1015.0000000000001,447.50000000000017 1058.3012701892221,472.50000000000017 1015.0000000000002,497.50000000000017 1015.0000000000002,472.50000000000017 " style="stroke-linecap:round;fill:none;stroke:rgb(0,193,172);stroke-opacity:1;stroke-width:15pt;" /><path d="M 840,472.5 877.5,407.5480947161671 952.5,537.451905283833 802.5,537.451905283833 840,472.50000000000006 " style="stroke-linecap:round;fill:none;stroke:rgb(0,193,172);stroke-opacity:1;stroke-width:15pt;" /><path d="M 948.2531754730549,535 967.0031754730549,502.5240473580835 1004.5031754730549,567.4759526419164 929.5031754730549,567.4759526419164 948.2531754730549,534.9999999999999 " style="stroke-linecap:round;fill:none;stroke:rgb(0,193,172);stroke-opacity:1;stroke-width:15pt;" /><path d="M 991.5544456622767,559.9999999999999 1004.0544456622767,538.3493649053889 1029.0544456622767,581.6506350946108 979.0544456622767,581.6506350946108 991.5544456622767,559.9999999999999 " style="stroke-linecap:round;fill:none;stroke:rgb(0,193,172);stroke-opacity:1;stroke-width:15pt;" /><path d="M 840,472.5 904.951905283833,435 904.951905283833,585 775.0480947161672,510 840,472.5 " style="stroke-linecap:round;fill:none;stroke:rgb(0,193,172);stroke-opacity:1;stroke-width:15pt;" /><path d="M 902.5,580.7531754730549 934.9759526419165,562.0031754730549 934.9759526419165,637.0031754730549 870.0240473580836,599.5031754730549 902.5000000000001,580.7531754730549 " style="stroke-linecap:round;fill:none;stroke:rgb(0,193,172);stroke-opacity:1;stroke-width:15pt;" /><path d="M 927.5000000000001,624.0544456622767 949.1506350946111,611.5544456622767 949.1506350946111,661.5544456622767 905.8493649053892,636.5544456622767 927.5000000000001,624.0544456622767 " style="stroke-linecap:round;fill:none;stroke:rgb(0,193,172);stroke-opacity:1;stroke-width:15pt;" /><path d="M 840,472.5 915,472.5 840,602.4038105676658 764.9999999999999,472.50000000000006 839.9999999999999,472.50000000000006 " style="stroke-linecap:round;fill:none;stroke:rgb(0,193,172);stroke-opacity:1;stroke-width:15pt;" /><path d="M 839.9999999999999,597.5 877.4999999999999,597.5 839.9999999999999,662.451905283833 802.4999999999999,597.5000000000001 839.9999999999999,597.5000000000001 " style="stroke-linecap:round;fill:none;stroke:rgb(0,193,172);stroke-opacity:1;stroke-width:15pt;" /><path d="M 839.9999999999999,647.5000000000001 864.9999999999999,647.5000000000001 839.9999999999999,690.801270189222 814.9999999999999,647.5000000000001 839.9999999999999,647.5000000000001 " style="stroke-linecap:round;fill:none;stroke:rgb(0,193,172);stroke-opacity:1;stroke-width:15pt;" /><path d="M 840,472.5 904.951905283833,510 775.0480947161673,585.0000000000001 775.0480947161673,435.0000000000001 840.0000000000002,472.5000000000001 " style="stroke-linecap:round;fill:none;stroke:rgb(0,193,172);stroke-opacity:1;stroke-width:15pt;" /><path d="M 777.5000000000002,580.753175473055 809.9759526419167,599.503175473055 745.0240473580839,637.003175473055 745.0240473580839,562.003175473055 777.5000000000003,580.753175473055 " style="stroke-linecap:round;fill:none;stroke:rgb(0,193,172);stroke-opacity:1;stroke-width:15pt;" /><path d="M 752.5000000000003,624.0544456622769 774.1506350946113,636.5544456622769 730.8493649053894,661.5544456622769 730.8493649053894,611.5544456622769 752.5000000000003,624.0544456622769 " style="stroke-linecap:round;fill:none;stroke:rgb(0,193,172);stroke-opacity:1;stroke-width:15pt;" /><path d="M 840,472.5 877.5,537.451905283833 727.5,537.451905283833 802.5,407.54809471616716 840,472.50000000000006 " style="stroke-linecap:round;fill:none;stroke:rgb(0,193,172);stroke-opacity:1;stroke-width:15pt;" /><path d="M 731.7468245269451,535.0000000000001 750.4968245269451,567.4759526419166 675.4968245269451,567.4759526419166 712.9968245269451,502.5240473580837 731.7468245269451,535.0000000000001 " style="stroke-linecap:round;fill:none;stroke:rgb(0,193,172);stroke-opacity:1;stroke-width:15pt;" /><path d="M 688.4455543377233,560.0000000000001 700.9455543377233,581.6506350946111 650.9455543377233,581.6506350946111 675.9455543377233,538.3493649053892 688.4455543377233,560.0000000000001 " style="stroke-linecap:round;fill:none;stroke:rgb(0,193,172);stroke-opacity:1;stroke-width:15pt;" /><path d="M 840,472.5 840,547.5 710.0961894323342,472.5 840,397.5 840,472.5 " style="stroke-linecap:round;fill:none;stroke:rgb(0,193,172);stroke-opacity:1;stroke-width:15pt;" /><path d="M 715,472.5 715,510 650.048094716167,472.5 715,435 715,472.5 " style="stroke-linecap:round;fill:none;stroke:rgb(0,193,172);stroke-opacity:1;stroke-width:15pt;" /><path d="M 665,472.5 665,497.5 621.6987298107781,472.5 665,447.5 665,472.5 " style="stroke-linecap:round;fill:none;stroke:rgb(0,193,172);stroke-opacity:1;stroke-width:15pt;" /><path d="M 840,472.5 802.5,537.451905283833 727.4999999999999,407.5480947161672 877.4999999999999,407.5480947161672 839.9999999999999,472.5000000000001 " style="stroke-linecap:round;fill:none;stroke:rgb(0,193,172);stroke-opacity:1;stroke-width:15pt;" /><path d="M 731.746824526945,410.0000000000001 712.996824526945,442.4759526419166 675.496824526945,377.52404735808375 750.496824526945,377.52404735808375 731.746824526945,410.0000000000002 " style="stroke-linecap:round;fill:none;stroke:rgb(0,193,172);stroke-opacity:1;stroke-width:15pt;" /><path d="M 688.4455543377231,385.0000000000002 675.9455543377231,406.6506350946112 650.9455543377231,363.3493649053893 700.9455543377231,363.3493649053893 688.4455543377231,385.0000000000002 " style="stroke-linecap:round;fill:none;stroke:rgb(0,193,172);stroke-opacity:1;stroke-width:15pt;" /><path d="M 840,472.5 775.0480947161672,510.00000000000006 775.0480947161672,360.00000000000006 904.951905283833,435 840.0000000000001,472.50000000000006 " style="stroke-linecap:round;fill:none;stroke:rgb(0,193,172);stroke-opacity:1;stroke-width:15pt;" /><path d="M 777.5,364.24682452694526 745.0240473580835,382.99682452694526 745.0240473580835,307.99682452694526 809.9759526419165,345.49682452694526 777.5,364.24682452694526 " style="stroke-linecap:round;fill:none;stroke:rgb(0,193,172);stroke-opacity:1;stroke-width:15pt;" /><path d="M 752.5,320.94555433772337 730.849364905389,333.44555433772337 730.849364905389,283.44555433772337 774.150635094611,308.44555433772337 752.5,320.94555433772337 " style="stroke-linecap:round;fill:none;stroke:rgb(0,193,172);stroke-opacity:1;stroke-width:15pt;" /></g></svg>