<?xml version="1.0" encoding="UTF-8" standalone="no"?><svg xmlns="http://www.w3.org/2000/svg" width="1680" height="945"><g transform="scale(1,1)"><path d="M 840,472.5 840,272.5 1030.2113032590307,210.6966011250105 1147.7683537175253,372.49999999999994 1030.2113032590307,534.3033988749894 840,472.49999999999994 891.7638090205041,279.3148347421863 1091.489715971419,268.8476434935975 1163.1633058804791,455.56372879303785 1007.7341135890849,581.4278070030052 840.0000000000001,472.4999999999999 940.0000000000001,299.29491924311213 1135.6295201467613,340.87725740666394 1156.535212800292,539.7816364803186 973.8261212717717,621.1289650954786 840.0000000000001,472.4999999999998 981.4213562373096,331.07864376269026 1159.6226610749832,421.8767437105996 1128.335768066937,619.4144118296272 930.7980999479093,650.7013048376734 840,472.4999999999999 1013.2050807568877,372.4999999999999 1161.8340458523667,506.3261212717715 1080.4867172372067,689.0352128002917 881.582338163552,668.129520146761 840,472.4999999999999 1033.1851652578137,420.73619097949575 1142.1129722608189,588.4703045685806 1016.2488940508514,743.8994968599748 829.532808751411,672.2259069509148 839.9999999999998,472.5 1039.9999999999998,472.5 1101.8033988749894,662.7113032590307 940,780.2683537175253 778.1966011250105,662.7113032590307 840,472.5 1033.1851652578137,524.2638090205041 1043.6523565064024,723.989715971419 856.936271206962,795.6633058804791 731.0721929969944,640.234113589085 839.9999999999999,472.5000000000002 1013.2050807568876,572.5000000000002 971.6227425933357,768.1295201467614 772.718363519681,789.035212800292 691.371034904521,606.3261212717719 839.9999999999999,472.50000000000017 981.4213562373094,613.9213562373096 890.6232562894002,792.1226610749833 693.0855881703726,760.8357680669371 661.7986951623263,563.2980999479096 839.9999999999999,472.5000000000002 939.9999999999999,645.705080756888 806.1738787282283,794.3340458523669 623.4647871997081,712.9867172372068 644.3704798532387,514.0823381635521 839.9999999999999,472.5000000000002 891.7638090205041,665.6851652578139 724.0296954314193,774.6129722608193 568.6005031400252,648.7488940508518 640.2740930490853,462.0328087514115 840.0000000000001,472.5000000000002 840.0000000000001,672.5000000000002 649.7886967409694,734.3033988749897 532.2316462824747,572.5000000000002 649.7886967409693,410.6966011250107 840,472.50000000000017 788.236190979496,665.6851652578139 588.5102840285812,676.1523565064027 516.836694119521,489.43627120696243 672.2658864109151,363.5721929969949 839.9999999999999,472.5000000000003 739.9999999999999,645.705080756888 544.3704798532387,604.1227425933364 523.4647871997081,405.2183635196817 706.1738787282283,323.8710349045217 840,472.5000000000005 698.5786437626905,613.9213562373101 520.3773389250168,523.1232562894007 551.664231933063,325.58558817037317 749.2019000520905,294.298695162327 839.9999999999999,472.50000000000057 666.7949192431122,572.5000000000007 518.1659541476332,438.6738787282291 599.5132827627932,255.96478719970895 798.4176618364479,276.87047985323966 839.9999999999998,472.5000000000008 646.8148347421861,524.2638090205049 537.8870277391807,356.5296954314201 663.7511059491482,201.10050314002592 850.4671912485885,272.774093049086 839.9999999999998,472.5000000000008 639.9999999999998,472.50000000000085 578.1966011250103,282.2886967409702 739.9999999999998,164.73164628247554 901.8033988749893,282.2886967409701 839.9999999999998,472.5000000000008 646.8148347421861,420.73619097949654 636.3476434935973,221.01028402858176 823.0637287930376,149.33669411952167 948.9278070030052,304.7658864109158 839.9999999999998,472.5000000000006 666.7949192431121,372.5000000000006 708.377257406664,176.8704798532395 907.2816364803186,155.96478719970878 988.6289650954787,338.67387872822894 840,472.5000000000006 698.5786437626905,331.0786437626912 789.3767437105998,152.87733892501763 986.9144118296274,184.16423193306383 1018.2013048376737,381.70190005209133 840.0000000000001,472.5000000000007 740,299.294919243113 873.8261212717716,150.66595414763412 1056.535212800292,232.01328276279415 1035.6295201467613,430.9176618364488 840.0000000000001,472.5000000000008 788.236190979496,279.31483474218714 955.9703045685808,170.3870277391817 1111.399496859975,296.2511059491492 1039.725906950915,482.96719124858953 840.0000000000002,472.50000000000074 " style="stroke-linecap:round;fill:none;stroke:rgb(255,0,104);stroke-opacity:1;stroke-width:20pt;" /></g></svg>