<?xml version="1.0" encoding="UTF-8" standalone="no"?><svg xmlns="http://www.w3.org/2000/svg" width="1680" height="945"><g transform="scale(1,1)"><path d="M 840,472.5 840,272.5 1013.2050807568878,372.49999999999994 840.0000000000001,472.5 891.7638090205043,279.31483474218635 1033.1851652578139,420.73619097949586 840.0000000000002,472.5 940.0000000000002,299.29491924311225 1040.0000000000002,472.5 840.0000000000002,472.50000000000006 981.4213562373097,331.07864376269055 1033.1851652578139,524.2638090205041 840.0000000000002,472.4999999999999 1013.2050807568879,372.4999999999999 1013.2050807568879,572.4999999999999 840.0000000000002,472.4999999999999 1033.1851652578139,420.73619097949575 981.4213562373097,613.9213562373094 840.0000000000002,472.4999999999999 1040.0000000000002,472.4999999999999 940.0000000000002,645.7050807568876 840.0000000000001,472.4999999999999 1033.1851652578139,524.263809020504 891.7638090205044,665.6851652578135 840.0000000000002,472.4999999999999 1013.205080756888,572.4999999999999 840.0000000000003,672.5 840.0000000000003,472.5 981.4213562373099,613.9213562373095 788.2361909794962,665.6851652578137 840.0000000000003,472.5 940.0000000000003,645.7050807568878 740.0000000000003,645.7050807568878 840.0000000000003,472.50000000000006 891.7638090205046,665.6851652578137 698.578643762691,613.9213562373094 840.0000000000005,472.4999999999999 840.0000000000005,672.4999999999999 666.7949192431128,572.4999999999999 840.0000000000005,472.4999999999999 788.2361909794964,665.6851652578135 646.8148347421869,524.263809020504 840.0000000000006,472.4999999999999 740.0000000000006,645.7050807568876 640.0000000000005,472.4999999999999 840.0000000000005,472.4999999999999 698.578643762691,613.9213562373094 646.8148347421868,420.73619097949575 840.0000000000005,472.4999999999999 666.7949192431128,572.5 666.7949192431128,372.5 840.0000000000005,472.49999999999994 646.8148347421868,524.263809020504 698.578643762691,331.0786437626904 840.0000000000005,472.4999999999999 640.0000000000005,472.49999999999994 740.0000000000005,299.2949192431122 840.0000000000005,472.49999999999994 646.8148347421868,420.7361909794957 788.2361909794963,279.3148347421862 840.0000000000006,472.49999999999983 666.7949192431129,372.49999999999983 840.0000000000006,272.4999999999998 840.0000000000006,472.4999999999998 698.5786437626911,331.07864376269026 891.7638090205047,279.3148347421861 840.0000000000007,472.4999999999998 740.0000000000006,299.2949192431121 940.0000000000006,299.2949192431121 840.0000000000006,472.4999999999998 788.2361909794964,279.3148347421861 981.4213562373101,331.07864376269026 840.0000000000006,472.4999999999998 " style="stroke-linecap:round;fill:none;stroke:rgb(255,0,104);stroke-opacity:1;stroke-width:20pt;" /></g></svg>