<?xml version="1.0" encoding="UTF-8" standalone="no"?><svg xmlns="http://www.w3.org/2000/svg" width="1680" height="945"><g transform="scale(1,1)"><path d="M 840,472.5 840,272.5 1013.2050807568877,172.5 1186.4101615137754,272.49999999999994 1186.4101615137754,472.49999999999994 1013.2050807568877,572.5 840,472.5 891.7638090205041,279.31483474218635 1084.9489742783178,227.5510257216822 1226.3703305156273,368.9723819589917 1174.6065214951232,562.1575472168054 981.4213562373095,613.9213562373095 840,472.5 940,299.29491924311225 1140,299.29491924311225 1240,472.5 1140,645.7050807568877 940,645.7050807568877 839.9999999999999,472.5 981.4213562373094,331.0786437626905 1174.6065214951232,382.84245278319463 1226.3703305156273,576.0276180410083 1084.9489742783178,717.4489742783178 891.7638090205041,665.6851652578135 840,472.4999999999999 1013.2050807568877,372.4999999999999 1186.4101615137754,472.49999999999983 1186.4101615137754,672.4999999999998 1013.2050807568877,772.4999999999999 840,672.4999999999999 840,472.4999999999999 1033.1851652578137,420.73619097949575 1174.6065214951232,562.1575472168053 1122.842712474619,755.3427124746189 929.6575472168054,807.106521495123 788.2361909794959,665.6851652578135 840,472.4999999999999 1040,472.4999999999999 1140,645.7050807568876 1040,818.9101615137753 840,818.9101615137754 739.9999999999999,645.7050807568877 839.9999999999999,472.49999999999994 1033.1851652578134,524.2638090205041 1084.9489742783176,717.4489742783178 943.527618041008,858.8703305156273 750.3424527831944,807.106521495123 698.5786437626903,613.9213562373094 839.9999999999998,472.4999999999999 1013.2050807568876,572.4999999999999 1013.2050807568876,772.4999999999999 839.9999999999999,872.5 666.7949192431122,772.5 666.7949192431122,572.5 839.9999999999999,472.5 981.4213562373094,613.9213562373095 929.6575472168054,807.1065214951232 736.4723819589917,858.8703305156273 595.0510257216822,717.4489742783178 646.8148347421863,524.2638090205041 840,472.5 940,645.7050807568878 840,818.9101615137755 640,818.9101615137756 539.9999999999999,645.7050807568879 639.9999999999999,472.50000000000017 839.9999999999999,472.50000000000017 891.7638090205041,665.6851652578139 750.3424527831946,807.1065214951234 557.157287525381,755.3427124746191 505.39347850487684,562.1575472168055 646.8148347421863,420.736190979496 840,472.5000000000001 840,672.5000000000001 666.7949192431123,772.5000000000002 493.5898384862246,672.5000000000002 493.5898384862246,472.5000000000002 666.7949192431123,372.5000000000002 840,472.50000000000017 788.236190979496,665.6851652578139 595.0510257216823,717.448974278318 453.6296694843728,576.0276180410085 505.39347850487695,382.84245278319486 698.5786437626906,331.0786437626907 840.0000000000001,472.5000000000002 740.0000000000001,645.7050807568879 540.0000000000001,645.7050807568879 440,472.5000000000002 540,299.2949192431125 740,299.2949192431125 840,472.5000000000002 698.5786437626905,613.9213562373097 505.39347850487684,562.1575472168055 453.6296694843727,368.97238195899183 595.0510257216822,227.55102572168232 788.2361909794959,279.31483474218646 840.0000000000001,472.5000000000001 666.7949192431124,572.5000000000002 493.5898384862247,472.5000000000002 493.5898384862247,272.5000000000002 666.7949192431124,172.50000000000023 840.0000000000002,272.50000000000017 840.0000000000002,472.50000000000017 646.8148347421866,524.2638090205043 505.39347850487707,382.84245278319474 557.1572875253812,189.6572875253811 750.3424527831949,137.89347850487695 891.7638090205044,279.31483474218646 840.0000000000003,472.5000000000001 640.0000000000003,472.50000000000017 540.0000000000002,299.29491924311253 640.0000000000002,126.08983848622478 840.0000000000002,126.08983848622478 940.0000000000002,299.29491924311253 840.0000000000002,472.5000000000002 646.8148347421866,420.736190979496 595.0510257216824,227.55102572168232 736.472381958992,86.12966948437281 929.6575472168056,137.89347850487695 981.4213562373097,331.0786437626906 840.0000000000002,472.5000000000001 666.7949192431125,372.5000000000001 666.7949192431125,172.5000000000001 840.0000000000002,72.50000000000011 1013.205080756888,172.50000000000006 1013.205080756888,372.50000000000006 840.0000000000003,472.5000000000001 698.5786437626908,331.0786437626906 750.342452783195,137.89347850487695 943.5276180410086,86.12966948437281 1084.948974278318,227.5510257216823 1033.1851652578139,420.736190979496 840.0000000000002,472.5000000000001 740.0000000000001,299.2949192431124 840.0000000000001,126.08983848622466 1040,126.08983848622466 1140,299.2949192431124 1040,472.5000000000001 840,472.50000000000017 788.2361909794959,279.3148347421865 929.6575472168054,137.893478504877 1122.842712474619,189.6572875253812 1174.6065214951232,382.84245278319486 1033.1851652578137,524.2638090205044 840,472.5000000000001 " style="stroke-linecap:round;fill:none;stroke:rgb(255,0,104);stroke-opacity:1;stroke-width:20pt;" /></g></svg>