<?xml version="1.0" encoding="UTF-8" standalone="no"?>
<svg
   xmlns:dc="http://purl.org/dc/elements/1.1/"
   xmlns:cc="http://creativecommons.org/ns#"
   xmlns:rdf="http://www.w3.org/1999/02/22-rdf-syntax-ns#"
   xmlns:svg="http://www.w3.org/2000/svg"
   xmlns="http://www.w3.org/2000/svg"
   xmlns:sodipodi="http://sodipodi.sourceforge.net/DTD/sodipodi-0.dtd"
   xmlns:inkscape="http://www.inkscape.org/namespaces/inkscape"
   inkscape:version="1.1-dev (ddb55ca, 2020-02-02)"
   sodipodi:docname="Simple Square Snowflake-For Cutting.svg"
   id="svg986"
   version="1.1"
   height="945"
   width="1680">
  <metadata
     id="metadata992">
    <rdf:RDF>
      <cc:Work
         rdf:about="">
        <dc:format>image/svg+xml</dc:format>
        <dc:type
           rdf:resource="http://purl.org/dc/dcmitype/StillImage" />
        <dc:title></dc:title>
      </cc:Work>
    </rdf:RDF>
  </metadata>
  <defs
     id="defs990" />
  <sodipodi:namedview
     inkscape:current-layer="svg986"
     inkscape:window-maximized="0"
     inkscape:window-y="25"
     inkscape:window-x="0"
     inkscape:cy="472.5"
     inkscape:cx="840"
     inkscape:zoom="0.62261905"
     showgrid="false"
     id="namedview988"
     inkscape:window-height="997"
     inkscape:window-width="1680"
     inkscape:pageshadow="2"
     inkscape:pageopacity="0"
     guidetolerance="10"
     gridtolerance="10"
     objecttolerance="10"
     borderopacity="1"
     bordercolor="#666666"
     pagecolor="#ffffff" />
  <path
     inkscape:connector-curvature="0"
     id="path998"
     d="m 319.61759,19.825637 -35.09961,35.09961 -42.98633,-24.81836 -24.81836,42.98633 -47.94531,-12.84766 -12.84766,47.945323 h -49.63671 v 49.63671 l -47.945319,12.84766 12.84766,47.94531 -42.98633,24.81836 24.81836,42.98633 -35.09961,35.09961 35.09961,35.09961 -24.81836,42.98633 42.98633,24.81836 -12.84766,47.94531 47.945319,12.84766 v 49.63671 h 49.63671 l 12.84766,47.94532 47.94531,-12.84766 24.81836,42.98633 42.98633,-24.81836 35.09961,35.09961 35.09961,-35.09961 42.98633,24.81836 24.81836,-42.98633 47.94531,12.84766 12.84769,-47.94532 h 49.6367 v -49.63671 l 47.9453,-12.84766 -12.8477,-47.94531 42.9864,-24.81836 -24.8184,-42.98633 35.0996,-35.09961 -35.0996,-35.09961 24.8184,-42.98633 -42.9864,-24.81836 12.8477,-47.94531 -47.9453,-12.84766 v -49.63671 h -49.6367 L 470.4672,60.245557 422.52189,73.093217 397.70353,30.106887 354.7172,54.925247 Z m 0,37.71289 11.18945,11.18945 -11.18945,6.46094 -11.18945,-6.46094 z m -68.32422,8.99414 13.70508,7.91211 -9.13672,9.13672 -12.48242,-3.34375 z m 136.64844,0 7.91211,13.70508 -12.48047,3.34375 -9.13672,-9.13672 z m -99.03516,21.7168 4.04492,2.33594 -3.47265,2.0039 -3.875,-1.03711 z m 61.42188,0 3.30273,3.30273 -3.875,1.03711 -3.47265,-2.0039 z m -162.70508,4.65625 15.28711,4.0957 -6.46094,11.189463 h -12.92187 z m 263.98828,0 4.0957,15.285163 h -12.92187 l -6.46094,-11.189463 z m -222.03516,11.240233 4.51172,1.20899 -2.83593,2.83594 h -4.01172 z m 180.08204,0 2.33398,4.04493 h -4.00977 l -2.83593,-2.83594 z m -276.70704,30.71289 h 15.82422 l -3.34375,12.48047 -12.48047,3.34375 z m 43.43164,0 h 4.66993 l -2.00391,3.47266 -3.875,1.03711 z m 118.65626,0 h 11.24414 v 85.38672 L 284.184,137.76705 Z m 37.9121,0 h 11.24414 l 10.85547,2.90821 -15.30859,57.13281 -6.79102,25.3457 z m 125.23047,0 h 4.66993 l 1.20898,4.50977 -3.875,-1.03711 z m 32.27735,0 h 15.8242 v 15.82422 l -12.4805,-3.34375 z m -232.03321,9.81055 6.48438,24.20117 15.61523,58.28125 -42.69531,-73.95117 9.73633,-5.62109 z m 122.38282,0 10.86132,2.91016 9.73438,5.62109 -42.69727,73.95117 z m -166.07227,21.86328 h 0.002 l 30.3418,52.55469 12.35352,21.39844 -60.38282,-60.38282 7.94727,-7.94726 z m 209.76172,0 9.73633,5.6211 7.94922,7.94921 -60.38282,60.38282 z m -287.03711,10.54883 -1.03711,3.875 -3.47266,2.00391 v -4.66993 z m 364.31245,0 4.5098,1.20898 v 4.66993 l -3.4726,-2.00391 z m -395.49018,8.35352 v 12.92187 l -11.189459,6.46094 -4.0957,-15.28711 z m 426.66798,0 15.2851,4.0957 -4.0957,15.28711 -11.1894,-6.46094 z m -354.75588,13.52343 60.38282,60.38282 -73.95313,-42.69532 v -0.002 l 5.62305,-9.73828 z m 282.84376,0 7.94726,7.94727 5.62305,9.73828 v 0.002 l -52.55469,30.3418 -21.39844,12.35352 z m -354.75586,30.18946 v 4.01172 l -2.83594,2.83593 -1.20899,-4.51172 z m 426.66798,0 4.0449,2.33593 -1.209,4.51172 -2.8359,-2.83593 z m -381.65822,10.58984 73.95117,42.69531 -58.28125,-15.61523 -24.20117,-6.48438 2.91016,-10.85937 z m 336.64842,0 5.6231,9.73828 2.9082,10.85742 -24.2012,6.48438 -58.28125,15.61523 z m -409.611309,5.54883 3.34375,12.48242 -9.13672,9.13672 -7.91211,-13.70508 z m 482.574209,0 13.7051,7.91406 -7.9121,13.70508 -9.1367,-9.13672 z m -425.04491,40.80469 57.13281,15.30859 25.3457,6.79102 h -85.38672 v -11.24414 z m 367.51561,0 2.9082,10.85547 v 11.24414 h -85.3867 z m -413.730459,1.41992 1.03711,3.875 -2.0039,3.47265 -2.33594,-4.04492 z m 459.945359,0 3.3027,3.30273 -2.3359,4.04492 -2.004,-3.47265 z m -482.769579,22.82422 6.46094,11.18945 -6.46094,11.18945 -11.18945,-11.18945 z m 505.593779,0 11.1894,11.18945 -11.1894,11.18945 -6.461,-11.18945 z m -439.46292,24.52343 h 85.38672 l -25.3457,6.79102 -57.13281,15.30859 -2.90821,-10.85547 z m 287.94532,0 h 85.3867 v 11.24414 l -2.9082,10.85547 z m -332.218749,13.33204 2.0039,3.47265 -1.03711,3.875 -3.30273,-3.30273 z m 461.878949,0 2.3359,4.04492 -3.3027,3.30273 -1.0372,-3.875 z m -325.31255,12.42578 -73.95117,42.69531 -5.62109,-9.73633 -2.91016,-10.85937 24.20117,-6.48438 z m 188.7461,0 58.28125,15.61523 24.2012,6.48438 -2.9082,10.85742 -5.6231,9.73828 z M 72.537511,376.144 l 9.13672,9.13672 -3.34375,12.48242 -13.70508,-7.91406 z m 494.160179,0 7.9121,13.70508 -13.7051,7.91406 -3.3437,-12.48242 z m -328.11916,7.56445 -60.38282,60.38282 -7.94726,-7.94727 -5.62305,-9.73828 v -0.002 l 52.55469,-30.3418 z m 162.07812,0 73.95313,42.69532 v 0.002 l -5.62305,9.73828 -7.94726,7.94727 z m -143.22265,18.85547 -12.35352,21.39844 -30.3418,52.55469 h -0.002 l -9.73828,-5.62305 -7.94727,-7.94726 z m 124.36718,0 60.38282,60.38282 -7.94922,7.94921 -9.73633,5.6211 z m -278.35351,4.49024 2.83594,2.83593 v 4.01172 l -4.04493,-2.33593 z m 432.33982,0 1.209,4.51172 -4.0449,2.33593 v -4.01172 z m -255.2617,8.84375 -15.61523,58.28125 -6.48438,24.20117 -10.85937,-2.91016 -9.73633,-5.62109 z m 78.18164,0 42.69727,73.95117 -9.73438,5.62109 -10.86132,2.91016 z m -52.42382,6.90625 v 85.38672 h -11.24414 l -10.85547,-2.90821 15.30859,-57.13281 z m 26.66796,0 22.09961,82.47851 -10.85547,2.90821 h -11.24414 z m -237.857419,15.42773 11.189459,6.46094 V 457.6147 L 90.998451,453.519 Z m 449.046839,0 4.0957,15.28711 -15.2851,4.0957 v -12.92187 z m -411.18942,21.85742 3.47266,2.00391 1.03711,3.875 -4.50977,-1.20898 z m 373.33202,0 v 4.66993 l -4.5098,1.20898 1.0372,-3.875 z m -373.33202,32.27735 12.48047,3.34375 3.34375,12.48047 h -15.82422 z m 373.33202,0 v 15.82422 h -15.8242 l 3.3437,-12.48047 z m -331.10936,11.31445 3.875,1.03711 2.00391,3.47266 h -4.66993 z m 288.88672,0 -1.20898,4.50977 h -4.66993 l 2.00391,-3.47266 z m -280.5332,31.17773 h 12.92187 l 6.46094,11.18946 -15.28711,4.0957 z m 43.71289,0 h 4.01172 l 2.83593,2.83594 -4.51172,1.20899 z m 180.74218,0 h 4.00977 l -2.33398,4.04493 -4.51172,-1.20899 z m 34.80274,0 h 12.92187 l -4.0957,15.28516 -15.28711,-4.0957 z m -153.30664,15.60157 3.47265,2.0039 -4.04492,2.33594 -3.30273,-3.30273 z m 60.27734,0 3.875,1.03711 -3.30273,3.30273 -4.04492,-2.33594 z m -93.89453,9.00781 9.13672,9.13672 -13.70508,7.91211 -7.91406,-13.70508 z m 127.51172,0 12.48047,3.34375 -7.91211,13.70508 -13.70508,-7.91211 z m -63.75586,8.39258 11.18945,6.46094 -11.18945,11.18945 -11.18945,-11.18945 z"
     style="color:#000000;font-style:normal;font-variant:normal;font-weight:normal;font-stretch:normal;font-size:medium;line-height:normal;font-family:sans-serif;font-variant-ligatures:normal;font-variant-position:normal;font-variant-caps:normal;font-variant-numeric:normal;font-variant-alternates:normal;font-variant-east-asian:normal;font-feature-settings:normal;font-variation-settings:normal;text-indent:0;text-align:start;text-decoration:none;text-decoration-line:none;text-decoration-style:solid;text-decoration-color:#000000;letter-spacing:normal;word-spacing:normal;text-transform:none;writing-mode:lr-tb;direction:ltr;text-orientation:mixed;dominant-baseline:auto;baseline-shift:baseline;text-anchor:start;white-space:normal;shape-padding:0;shape-margin:0;inline-size:0;clip-rule:nonzero;display:inline;overflow:visible;visibility:visible;opacity:1;isolation:auto;mix-blend-mode:normal;color-interpolation:sRGB;color-interpolation-filters:linearRGB;solid-color:#000000;solid-opacity:1;vector-effect:none;fill:none;fill-opacity:1;fill-rule:nonzero;stroke:#ff0000;stroke-width:0.377953;stroke-linecap:round;stroke-linejoin:miter;stroke-miterlimit:4;stroke-dasharray:none;stroke-dashoffset:0;stroke-opacity:1;color-rendering:auto;image-rendering:auto;shape-rendering:auto;text-rendering:auto;enable-background:accumulate;stop-color:#000000;stop-opacity:1" />
</svg>
