<?xml version="1.0" encoding="UTF-8" standalone="no"?><svg xmlns="http://www.w3.org/2000/svg" width="1680" height="945"><g transform="scale(1,1)"><path d="M 840,472.5 840,272.5 1040,272.5 1040,472.5 840,472.50000000000006 891.7638090205041,279.3148347421864 1084.9489742783178,331.0786437626906 1033.1851652578137,524.2638090205043 840,472.5 940,299.29491924311225 1113.2050807568878,399.2949192431122 1013.2050807568878,572.4999999999999 840.0000000000001,472.4999999999999 981.4213562373096,331.0786437626904 1122.842712474619,472.4999999999999 981.4213562373095,613.9213562373094 840,472.4999999999999 1013.2050807568877,372.4999999999999 1113.2050807568876,545.7050807568876 939.9999999999999,645.7050807568877 839.9999999999998,472.5 1033.1851652578134,420.73619097949586 1084.9489742783176,613.9213562373095 891.7638090205039,665.6851652578137 839.9999999999998,472.5 1039.9999999999998,472.5 1039.9999999999998,672.5 839.9999999999998,672.5 839.9999999999998,472.5 1033.1851652578134,524.2638090205041 981.4213562373093,717.4489742783178 788.2361909794956,665.6851652578135 839.9999999999998,472.4999999999999 1013.2050807568876,572.4999999999999 913.2050807568876,745.7050807568876 739.9999999999999,645.7050807568876 839.9999999999999,472.49999999999983 981.4213562373094,613.9213562373093 839.9999999999999,755.3427124746188 698.5786437626904,613.9213562373093 839.9999999999999,472.4999999999998 939.9999999999999,645.7050807568876 766.7949192431122,745.7050807568877 666.7949192431121,572.5 839.9999999999998,472.5 891.763809020504,665.6851652578137 698.5786437626904,717.4489742783178 646.8148347421862,524.2638090205041 839.9999999999999,472.5 839.9999999999999,672.5 639.9999999999999,672.5 639.9999999999999,472.5 839.9999999999999,472.5 788.2361909794959,665.6851652578137 595.0510257216822,613.9213562373094 646.8148347421863,420.73619097949575 840,472.4999999999999 740,645.7050807568876 566.7949192431123,545.7050807568876 666.7949192431123,372.49999999999983 840,472.4999999999998 698.5786437626905,613.9213562373093 557.157287525381,472.4999999999998 698.5786437626905,331.07864376269026 840,472.4999999999998 666.7949192431123,572.4999999999999 566.7949192431122,399.2949192431122 739.9999999999999,299.2949192431122 839.9999999999999,472.49999999999994 646.8148347421862,524.263809020504 595.0510257216821,331.0786437626904 788.2361909794957,279.31483474218624 840,472.4999999999999 640,472.49999999999994 640,272.49999999999994 840,272.49999999999994 840,472.49999999999994 646.8148347421863,420.7361909794957 698.5786437626905,227.55102572168204 891.7638090205041,279.31483474218624 840.0000000000001,472.4999999999999 666.7949192431124,372.4999999999999 766.7949192431124,199.29491924311213 940.0000000000002,299.2949192431121 840.0000000000002,472.4999999999998 698.5786437626907,331.07864376269026 840.0000000000002,189.65728752538075 981.4213562373097,331.07864376269026 840.0000000000002,472.4999999999998 740.0000000000001,299.2949192431121 913.2050807568878,199.29491924311208 1013.2050807568878,372.49999999999983 840.0000000000001,472.4999999999999 788.236190979496,279.31483474218624 981.4213562373096,227.5510257216821 1033.1851652578139,420.73619097949575 840.0000000000002,472.4999999999999 " style="stroke-linecap:round;fill:none;stroke:rgb(255,0,104);stroke-opacity:1;stroke-width:20pt;" /></g></svg>